<?xml version="1.0" standalone="yes"?>

<svg version="1.1" viewBox="0.0 0.0 960.0 720.0" fill="none" stroke="none" stroke-linecap="square" stroke-miterlimit="10" xmlns="http://www.w3.org/2000/svg" xmlns:xlink="http://www.w3.org/1999/xlink"><clipPath id="p.0"><path d="m0 0l960.0 0l0 720.0l-960.0 0l0 -720.0z" clip-rule="nonzero"></path></clipPath><g clip-path="url(#p.0)"><path fill="#000000" fill-opacity="0.0" d="m0 0l960.0 0l0 720.0l-960.0 0z" fill-rule="evenodd"></path><path fill="#d9d9d9" d="m17.915194 20.739792l923.811 0l0 679.46454l-923.811 0z" fill-rule="evenodd"></path><path fill="#ffffff" d="m128.28346 115.6811l703.4331 0l0 477.63782l-703.4331 0z" fill-rule="evenodd"></path><path stroke="#000000" stroke-width="1.0" stroke-linejoin="round" stroke-linecap="butt" d="m128.28346 115.6811l703.4331 0l0 477.63782l-703.4331 0z" fill-rule="evenodd"></path><path fill="#000000" fill-opacity="0.0" d="m144.28346 129.1811l226.99214 0l0 68.566925l-226.99214 0z" fill-rule="evenodd"></path><path fill="#000000" d="m158.33034 174.28673q-0.5625 0 -0.890625 -0.546875q-0.3125 -0.546875 -0.3125 -1.328125q0 -1.234375 0.15625 -3.015625l0.0625 -0.96875l0.078125 -1.984375q0 -1.3125 -0.265625 -5.828125q-0.25 -4.515625 -0.25 -5.8125q0 -0.125 0.015625 -0.4375q0.015625 -0.3125 0.015625 -0.984375q0.046875 -0.75 0.046875 -1.828125q0 -2.734375 -0.375 -3.46875q-0.234375 0 -0.96875 0.109375l-1.046875 0.078125q-0.484375 0 -0.859375 -0.28125q-0.375 -0.28125 -0.375 -0.734375q0 -0.453125 0.890625 -0.78125q1.3125 -0.453125 4.4375 -0.640625q1.28125 -0.0625 1.53125 -0.0625q0.453125 0 0.828125 0.296875q0.375 0.296875 0.375 0.734375q0 0.453125 -0.328125 0.734375q-0.3125 0.28125 -0.796875 0.28125l-0.671875 -0.03125q-0.296875 -0.046875 -0.671875 -0.046875l-0.375 0q0.265625 2.546875 0.265625 4.59375l-0.03125 2.390625q-0.046875 1.078125 -0.046875 2.421875q0 1.796875 0.15625 4.296875q0.1875 3.09375 0.1875 4.296875q0 1.40625 0.140625 3.359375q0.15625 1.96875 0.15625 3.359375q0 1.828125 -1.078125 1.828125zm13.545624 0.375q-0.828125 0 -1.5 -1.796875q-0.78125 -1.9375 -1.15625 -4.0l-0.265625 -1.265625q-1.078125 -5.34375 -1.375 -6.078125l-0.453125 0q0 1.078125 -0.03125 1.96875l0 2.0625q0 5.0 0.703125 7.796875l-0.40625 1.015625l-1.046875 0l-0.484375 -0.5625l0.046875 -2.5q0 -3.359375 -0.34375 -10.203125q-0.296875 -7.265625 -0.296875 -10.1875q0 -1.78125 1.234375 -1.78125q2.015625 0 3.296875 1.046875q1.296875 1.03125 1.296875 2.90625l0 2.609375q0 0.5625 -0.1875 1.296875q-0.1875 0.71875 -0.421875 1.171875l-0.703125 1.34375l-0.59375 1.109375l0.1875 0.90625l0.515625 2.640625q0.53125 2.875 1.015625 4.671875q0.484375 1.796875 1.1875 3.25l0.21875 0.4375q0.375 0.75 0.375 1.203125q0 0.375 -0.21875 0.65625q-0.21875 0.28125 -0.59375 0.28125zm-4.59375 -14.96875q0.828125 -0.421875 1.40625 -2.265625q0.578125 -1.84375 0.578125 -3.421875q0 -1.1875 -0.3125 -2.234375q-0.171875 -0.59375 -0.609375 -0.90625q-0.421875 -0.328125 -1.0625 -0.328125l-0.078125 0.1875l-0.078125 0.34375l0.078125 4.40625q0.078125 1.9375 0.078125 4.21875zm16.418076 14.671875q-0.859375 0 -1.265625 -0.265625q-0.40625 -0.265625 -0.40625 -0.96875q0 -1.125 -0.375 -3.8125l-0.15625 -0.78125l-3.6875 -0.5625q-0.21875 0.859375 -0.640625 3.46875q-0.21875 1.828125 -0.703125 2.421875q-0.265625 0.34375 -0.75 0.34375q-0.453125 0 -0.828125 -0.28125q-0.359375 -0.28125 -0.359375 -0.6875l0.0625 -0.1875l0.046875 -0.15625q2.46875 -9.59375 3.734375 -18.921875q0 -0.140625 0.03125 -0.5q0.046875 -0.359375 0.078125 -1.03125q0.109375 -1.375 0.234375 -2.1875q0.140625 -0.828125 0.4375 -1.25l1.265625 0q0.53125 0 0.890625 0.25q0.375 0.234375 0.375 0.6875q0 2.84375 0.796875 8.4375q0.734375 5.75 0.734375 8.0625q0 0.21875 0.1875 1.15625q0.1875 0.859375 0.1875 1.125q0 0.25 0.375 2.234375q0.34375 1.796875 0.34375 2.3125l0 0.046875q0 0.8125 -0.609375 1.046875zm-2.453125 -7.171875q-0.109375 -0.5625 -0.109375 -1.390625q0 -3.359375 -0.609375 -8.578125l-0.375 -3.890625q-1.59375 8.78125 -2.203125 13.265625q0.5625 0.359375 3.296875 0.59375zm9.145523 6.71875q0 -4.296875 -0.8125 -8.890625q-0.796875 -4.59375 -2.515625 -11.234375q-0.078125 -0.375 -0.328125 -1.15625q-0.671875 -2.09375 -0.671875 -2.65625q0 -0.328125 0.265625 -0.578125q0.28125 -0.265625 0.625 -0.265625q0.5625 0 1.046875 0.921875q0.484375 0.90625 0.890625 2.421875q0.40625 1.5 0.890625 3.734375q0.453125 2.140625 1.09375 6.546875l0.21875 1.453125l0.453125 3.3125q0.140625 1.390625 0.25 1.984375q0.796875 -4.109375 2.015625 -11.875q1.015625 -6.640625 1.421875 -9.0625l0.828125 0q0.328125 0 0.59375 0.25q0.265625 0.234375 0.265625 0.5625q0 1.34375 -0.328125 2.90625q-0.3125 1.546875 -0.9375 3.703125q-0.53125 1.875 -0.703125 2.8125q-0.15625 0.921875 -0.3125 2.9375q-0.296875 4.515625 -0.9375 8.09375q-0.40625 2.171875 -1.078125 3.40625q-0.671875 1.234375 -1.53125 1.234375l-0.703125 -0.5625zm11.983292 0.59375q-0.484375 0 -0.890625 -0.34375q-0.390625 -0.328125 -0.421875 -0.8125l0 -0.96875l0 -0.75q-0.03125 -0.328125 -0.03125 -0.78125q0 -0.78125 -0.125 -2.390625l-0.0625 -2.390625q0 -1.828125 0.109375 -5.453125q0.140625 -3.234375 0.140625 -5.4375q0 -0.53125 -0.109375 -1.578125q-0.109375 -1.078125 -0.109375 -1.5625q0 -2.65625 1.5625 -2.65625q1.234375 0 2.859375 0.484375q1.625 0.484375 1.625 1.15625q0 0.375 -0.328125 0.703125q-0.3125 0.3125 -0.75 0.5q-1.578125 -0.5625 -2.84375 -0.75q0.046875 0.5625 0.046875 1.609375q0 1.484375 -0.046875 2.6875q-0.109375 1.78125 -0.109375 2.6875l0.109375 0.59375l0.59375 -0.03125q0.3125 -0.046875 0.75 -0.046875q1.796875 0 1.796875 1.046875q0 0.40625 -0.34375 0.6875q-0.328125 0.28125 -0.859375 0.28125q-0.671875 0 -1.03125 -0.078125l-0.9375 0q0.078125 0.984375 0.078125 2.84375q0 1.859375 -0.046875 3.359375q-0.109375 2.28125 -0.109375 3.390625q0 2.09375 0.078125 2.09375l1.234375 -0.03125q0.625 -0.046875 1.53125 -0.046875q1.40625 0 1.40625 0.90625q0 0.515625 -0.46875 0.796875q-0.453125 0.28125 -1.125 0.28125l-3.171875 0zm14.632477 0.109375q-1.34375 -0.4375 -3.328125 -0.4375q-0.59375 0.359375 -1.265625 0.359375q-0.453125 0 -0.765625 -0.390625q-0.3125 -0.390625 -0.3125 -0.828125q0 -3.140625 0.25 -8.375q0.234375 -5.546875 0.234375 -8.3125l0 -0.265625q-0.234375 -2.359375 -0.234375 -3.515625q0 -3.546875 1.3125 -3.546875q0.375 0 0.65625 0.28125q0.28125 0.28125 0.28125 0.65625q0 0.453125 -0.125 1.421875q-0.109375 0.9375 -0.109375 1.421875q0 2.5 0.046875 4.515625q0.03125 1.96875 0.03125 4.484375q-0.1875 0.546875 -0.1875 1.5625l0 0.453125l-0.078125 2.9375q-0.0625 1.3125 -0.0625 2.984375q0 2.578125 1.21875 2.578125q0.078125 0 0.25 -0.015625q0.171875 -0.015625 0.46875 -0.015625q0.328125 -0.046875 0.859375 -0.046875q2.015625 0 2.015625 1.125q0 0.375 -0.34375 0.625q-0.328125 0.265625 -0.8125 0.34375zm6.1914673 -0.5625q-1.078125 0 -1.078125 -2.390625q0 -4.328125 -0.390625 -13.84375q-0.390625 -9.515625 -0.734375 -10.03125q0 -1.046875 0.828125 -1.609375q0.296875 -0.1875 0.828125 -0.3125q0.546875 -0.140625 1.0 -0.140625q0.21875 -0.03125 0.921875 -0.03125q0.859375 0 1.234375 0.28125q0.375 0.28125 0.375 0.984375q0 0.40625 -0.296875 0.625q-0.296875 0.203125 -0.75 0.203125l-0.375 -0.046875l-0.515625 0q-1.046875 0 -1.046875 0.40625q0 1.953125 0.265625 5.078125q0.21875 2.625 0.296875 4.96875q0.265625 -0.078125 0.984375 -0.234375q0.734375 -0.171875 1.109375 -0.171875q0.40625 0 0.703125 0.359375q0.296875 0.34375 0.296875 0.796875q0 0.515625 -0.484375 0.75q-0.078125 0.03125 -0.359375 0.171875q-0.28125 0.125 -0.71875 0.15625q-0.34375 0.046875 -1.125 0.109375l-0.40625 0q0 2.25 0.375 6.09375q0.328125 4.03125 0.328125 6.078125l-0.03125 0.15625l-0.046875 0.0625q0.046875 0.15625 0.046875 0.484375q0 0.5 -0.34375 0.78125q-0.328125 0.265625 -0.890625 0.265625zm11.938858 0.53125q-0.890625 0 -1.609375 -0.390625q-0.703125 -0.390625 -1.140625 -1.140625q-0.90625 -1.5625 -1.15625 -3.546875q-0.265625 -1.71875 -0.265625 -4.109375q-0.109375 -4.03125 -0.109375 -9.859375l-0.046875 -2.875q-0.03125 -0.21875 -0.03125 -0.734375q-0.078125 -1.421875 -0.078125 -1.71875q0.34375 -0.78125 0.78125 -0.78125q0.453125 0 0.796875 0.671875q0.359375 0.671875 0.359375 1.453125l0 10.15625q0 1.484375 0.265625 3.953125q0.265625 3.0625 0.265625 3.953125q0 2.765625 2.34375 2.765625q2.6875 0 2.6875 -20.078125l0 -2.09375l0 -0.34375q-0.03125 -0.109375 -0.03125 -0.296875q0 -0.4375 0.203125 -0.640625q0.203125 -0.21875 0.796875 -0.21875q0.484375 0 0.765625 0.28125q0.28125 0.28125 0.359375 0.65625q0.03125 0.21875 0.03125 0.859375q0 0.59375 -0.109375 1.90625q-0.140625 1.078125 -0.140625 1.859375q0 0.859375 -0.078125 1.53125l-0.078125 1.578125l0 0.296875q0.046875 0.140625 0.046875 0.328125q0 16.578125 -4.828125 16.578125zm19.67862 -0.453125q-0.453125 0 -0.671875 -0.234375q-0.21875 -0.25 -0.34375 -0.84375l-0.21875 -0.71875l0 -0.0625l0 -0.109375q0 -1.234375 -2.5625 -8.40625q-2.546875 -7.171875 -4.0 -10.59375l0 18.765625l0.140625 0.265625q0.046875 0.078125 0.15625 0.265625q0.109375 0.1875 0.109375 0.375q0 0.484375 -0.34375 0.828125q-0.328125 0.328125 -0.8125 0.328125q-1.203125 0 -1.203125 -2.28125l-0.03125 -6.390625q-0.03125 -2.875 -0.03125 -6.421875q0 -1.1875 0.109375 -3.46875q0.109375 -2.34375 0.109375 -3.46875q0 -1.75 1.34375 -2.765625l0 0.234375q0.21875 -0.078125 0.296875 -0.078125q0.859375 0 2.171875 2.984375q1.046875 2.390625 1.875 5.046875q0.84375 2.640625 2.21875 7.53125l0.375 1.34375q0.859375 3.03125 1.3125 4.328125q0.75 -8.015625 0.75 -18.953125l0 -0.484375q-0.046875 -0.234375 -0.046875 -0.5q0 -1.109375 0.90626526 -1.109375q0.515625 0 0.796875 0.40625q0.28125 0.40625 0.28125 1.046875l0 2.796875q-0.078125 5.75 -0.453125 12.46875q-0.375 6.71875 -0.890625 7.578125q-1.0781403 0.296875 -1.3437653 0.296875zm8.880234 0.109375q-0.96875 0 -0.96875 -4.890625l0.078125 -5.890625q0.03125 -2.609375 0.03125 -5.859375q0 -1.203125 -0.21875 -3.703125q-0.1875 -2.71875 -0.1875 -3.3125q0 -0.484375 0.40625 -0.859375q0.421875 -0.375 0.90625 -0.375q1.296875 0 2.5 0.578125q1.21875 0.578125 2.15625 1.625q1.984375 2.28125 2.609375 5.0q0.34375 1.375 0.34375 2.71875q0 0.484375 -0.03125 0.90625l-0.046875 1.0l0 2.0625q0 2.375 -0.140625 3.765625q-0.234375 1.859375 -0.859375 3.3125q-0.75 1.578125 -2.171875 2.8125q-0.671875 0.546875 -1.71875 1.109375l-2.6875 0zm1.640625 -1.90625q0.75 0 1.375 -0.390625q0.640625 -0.390625 1.09375 -1.0625q0.375 -0.59375 0.6875 -1.5q0.3125 -0.921875 0.46875 -1.78125q0.34375 -1.671875 0.40625 -3.4375q0.046875 -0.4375 0.046875 -1.296875q0 -11.28125 -4.375 -11.765625q-0.265625 1.6875 -0.265625 3.890625q0 2.34375 0.3125 8.203125q0.25 5.1875 0.25 8.25l0 0.890625zm10.759338 2.203125q-0.671875 -0.109375 -1.140625 -0.484375q-0.46875 -0.375 -0.546875 -0.96875l0.421875 -0.625q0.21875 0 0.703125 0.140625q0.5625 0.109375 0.859375 0.109375q0.671875 0 1.203125 -0.59375q0.546875 -0.59375 0.8125 -1.5625q0.484375 -1.796875 0.484375 -3.21875q0 -2.453125 -1.5625 -5.1875l-0.421875 -0.703125q-0.703125 -1.234375 -1.1875 -2.203125q-0.484375 -0.96875 -0.828125 -2.09375q-0.4375 -1.453125 -0.4375 -2.90625q0 -1.640625 0.734375 -3.4375q0.375 -0.859375 1.0625 -1.390625q0.703125 -0.546875 1.5625 -0.546875q0.671875 0 1.25 0.4375q0.578125 0.421875 0.578125 1.015625q0 0.328125 -0.265625 0.515625q-0.265625 0.1875 -0.640625 0.1875q-0.40625 0 -0.78125 -0.21875q-0.8125 0.03125 -1.296875 1.453125q-0.421875 1.3125 -0.421875 2.171875q0 1.078125 0.328125 2.1875q0.34375 1.09375 0.875 1.984375l0.8125 1.5l1.3125 2.46875q0.515625 1.03125 0.828125 2.421875q0.328125 1.375 0.328125 2.796875q0 2.28125 -1.046875 4.328125q-0.515625 1.046875 -1.46875 1.6875q-0.953125 0.625 -2.109375 0.625l0 0.109375zm11.313812 -0.25q-0.5625 0 -0.890625 -0.546875q-0.3125 -0.546875 -0.3125 -1.328125q0 -1.234375 0.15625 -3.015625l0.0625 -0.96875l0.078125 -1.984375q0 -1.3125 -0.265625 -5.828125q-0.25 -4.515625 -0.25 -5.8125q0 -0.125 0.015625 -0.4375q0.015625 -0.3125 0.015625 -0.984375q0.046875 -0.75 0.046875 -1.828125q0 -2.734375 -0.375 -3.46875q-0.234375 0 -0.96875 0.109375l-1.046875 0.078125q-0.484375 0 -0.859375 -0.28125q-0.375 -0.28125 -0.375 -0.734375q0 -0.453125 0.890625 -0.78125q1.3125 -0.453125 4.4375 -0.640625q1.28125 -0.0625 1.53125 -0.0625q0.453125 0 0.828125 0.296875q0.375 0.296875 0.375 0.734375q0 0.453125 -0.328125 0.734375q-0.3125 0.28125 -0.796875 0.28125l-0.671875 -0.03125q-0.296875 -0.046875 -0.671875 -0.046875l-0.375 0q0.265625 2.546875 0.265625 4.59375l-0.03125 2.390625q-0.046875 1.078125 -0.046875 2.421875q0 1.796875 0.15625 4.296875q0.1875 3.09375 0.1875 4.296875q0 1.40625 0.140625 3.359375q0.15625 1.96875 0.15625 3.359375q0 1.828125 -1.078125 1.828125zm13.545624 0.375q-0.828125 0 -1.5 -1.796875q-0.78125 -1.9375 -1.15625 -4.0l-0.265625 -1.265625q-1.078125 -5.34375 -1.375 -6.078125l-0.453125 0q0 1.078125 -0.03125 1.96875l0 2.0625q0 5.0 0.703125 7.796875l-0.40625 1.015625l-1.046875 0l-0.484375 -0.5625l0.046875 -2.5q0 -3.359375 -0.34375 -10.203125q-0.296875 -7.265625 -0.296875 -10.1875q0 -1.78125 1.234375 -1.78125q2.015625 0 3.296875 1.046875q1.296875 1.03125 1.296875 2.90625l0 2.609375q0 0.5625 -0.1875 1.296875q-0.1875 0.71875 -0.421875 1.171875l-0.703125 1.34375l-0.59375 1.109375l0.1875 0.90625l0.515625 2.640625q0.53125 2.875 1.015625 4.671875q0.484375 1.796875 1.1875 3.25l0.21875 0.4375q0.375 0.75 0.375 1.203125q0 0.375 -0.21875 0.65625q-0.21875 0.28125 -0.59375 0.28125zm-4.59375 -14.96875q0.828125 -0.421875 1.40625 -2.265625q0.578125 -1.84375 0.578125 -3.421875q0 -1.1875 -0.3125 -2.234375q-0.171875 -0.59375 -0.609375 -0.90625q-0.421875 -0.328125 -1.0625 -0.328125l-0.078125 0.1875l-0.078125 0.34375l0.078125 4.40625q0.078125 1.9375 0.078125 4.21875zm16.41809 14.671875q-0.859375 0 -1.265625 -0.265625q-0.40625 -0.265625 -0.40625 -0.96875q0 -1.125 -0.375 -3.8125l-0.15625 -0.78125l-3.6875 -0.5625q-0.21875 0.859375 -0.640625 3.46875q-0.21875 1.828125 -0.703125 2.421875q-0.265625 0.34375 -0.75 0.34375q-0.453125 0 -0.828125 -0.28125q-0.359375 -0.28125 -0.359375 -0.6875l0.0625 -0.1875l0.046875 -0.15625q2.46875 -9.59375 3.734375 -18.921875q0 -0.140625 0.03125 -0.5q0.046875 -0.359375 0.078125 -1.03125q0.109375 -1.375 0.234375 -2.1875q0.140625 -0.828125 0.4375 -1.25l1.265625 0q0.53125 0 0.890625 0.25q0.375 0.234375 0.375 0.6875q0 2.84375 0.796875 8.4375q0.734375 5.75 0.734375 8.0625q0 0.21875 0.1875 1.15625q0.1875 0.859375 0.1875 1.125q0 0.25 0.375 2.234375q0.34375 1.796875 0.34375 2.3125l0 0.046875q0 0.8125 -0.609375 1.046875zm-2.453125 -7.171875q-0.109375 -0.5625 -0.109375 -1.390625q0 -3.359375 -0.609375 -8.578125l-0.375 -3.890625q-1.59375 8.78125 -2.203125 13.265625q0.5625 0.359375 3.296875 0.59375zm11.270508 7.34375q-0.828125 0 -1.75 -0.25q-0.90625 -0.234375 -1.390625 -0.53125q-2.5 -1.59375 -2.5 -8.765625l0 -1.015625l0 -1.15625l0 -0.890625q0 -1.5 0.03125 -2.671875q0.046875 -1.171875 0.15625 -2.546875q0.109375 -1.46875 0.328125 -2.375q0.234375 -0.921875 0.75 -2.078125q0.453125 -1.078125 1.109375 -1.671875q0.65625 -0.609375 1.703125 -1.015625q0.921875 -0.40625 2.3125 -0.40625q0.546875 0 0.84375 0.265625q0.3125 0.25 0.3125 0.671875q0 0.375 -0.25 0.671875q-0.234375 0.296875 -0.578125 0.328125l-1.75 0q-0.75 0 -1.3125 0.9375q-0.5625 0.9375 -0.78125 2.421875q-0.484375 2.765625 -0.484375 4.484375l0 0.1875l-0.078125 3.578125q-0.078125 1.609375 -0.078125 3.625q0 1.421875 0.125 2.3125q0.1875 1.34375 0.625 2.234375q0.453125 1.015625 1.53125 1.453125q0.5625 0.234375 1.234375 0.234375q0.40625 0 0.828125 -0.296875q0.484375 0 0.796875 0.203125q0.3125 0.203125 0.3125 0.609375q0 1.453125 -2.046875 1.453125zm14.227081 0.125q-0.859375 0 -1.84375 -1.875q-1.453125 -2.796875 -2.859375 -9.21875q-0.421875 -1.75 -0.671875 -3.25q-1.34375 2.6875 -1.34375 6.5l0 6.90625q0 0.859375 -0.75 0.859375q-0.5625 0 -0.921875 -0.328125q-0.34375 -0.3125 -0.34375 -0.875l0 -11.296875q0 -1.65625 0.359375 -6.0625q0.375 -3.84375 0.375 -6.046875q0.296875 -0.703125 1.09375 -0.703125q0.484375 0 0.8125 0.34375q0.34375 0.328125 0.34375 0.8125l0 0.109375q-0.484375 0.828125 -0.484375 6.796875l0 1.34375l1.375 -2.71875q1.265625 -2.65625 2.390625 -4.5625q1.046875 -1.859375 1.53125 -1.859375q0.59375 0 1.015625 0.265625q0.4375 0.25 0.4375 0.734375l-0.890625 1.5q-2.8125 4.515625 -3.140625 5.21875q0 0.640625 -0.03125 1.125l-0.046875 1.125q0 1.59375 1.28125 5.984375q1.296875 4.390625 2.15625 5.8125l0.484375 0.671875q0.703125 0.96875 0.703125 1.703125q0 0.421875 -0.3125 0.703125q-0.3125 0.28125 -0.71875 0.28125zm5.9711304 -0.15625q-0.484375 0 -0.890625 -0.34375q-0.390625 -0.328125 -0.421875 -0.8125l0 -0.96875l0 -0.75q-0.03125 -0.328125 -0.03125 -0.78125q0 -0.78125 -0.125 -2.390625l-0.0625 -2.390625q0 -1.828125 0.109375 -5.453125q0.140625 -3.234375 0.140625 -5.4375q0 -0.53125 -0.109375 -1.578125q-0.109375 -1.078125 -0.109375 -1.5625q0 -2.65625 1.5625 -2.65625q1.234375 0 2.859375 0.484375q1.625 0.484375 1.625 1.15625q0 0.375 -0.328125 0.703125q-0.3125 0.3125 -0.75 0.5q-1.578125 -0.5625 -2.84375 -0.75q0.046875 0.5625 0.046875 1.609375q0 1.484375 -0.046875 2.6875q-0.109375 1.78125 -0.109375 2.6875l0.109375 0.59375l0.59375 -0.03125q0.3125 -0.046875 0.75 -0.046875q1.796875 0 1.796875 1.046875q0 0.40625 -0.34375 0.6875q-0.328125 0.28125 -0.859375 0.28125q-0.671875 0 -1.03125 -0.078125l-0.9375 0q0.078125 0.984375 0.078125 2.84375q0 1.859375 -0.046875 3.359375q-0.109375 2.28125 -0.109375 3.390625q0 2.09375 0.078125 2.09375l1.234375 -0.03125q0.625 -0.046875 1.53125 -0.046875q1.40625 0 1.40625 0.90625q0 0.515625 -0.46875 0.796875q-0.453125 0.28125 -1.125 0.28125l-3.171875 0zm15.413727 0.15625q-0.828125 0 -1.5 -1.796875q-0.78125 -1.9375 -1.15625 -4.0l-0.265625 -1.265625q-1.078125 -5.34375 -1.375 -6.078125l-0.453125 0q0 1.078125 -0.03125 1.96875l0 2.0625q0 5.0 0.703125 7.796875l-0.40625 1.015625l-1.046875 0l-0.484375 -0.5625l0.046875 -2.5q0 -3.359375 -0.34375 -10.203125q-0.296875 -7.265625 -0.296875 -10.1875q0 -1.78125 1.234375 -1.78125q2.015625 0 3.296875 1.046875q1.296875 1.03125 1.296875 2.90625l0 2.609375q0 0.5625 -0.1875 1.296875q-0.1875 0.71875 -0.421875 1.171875l-0.703125 1.34375l-0.59375 1.109375l0.1875 0.90625l0.515625 2.640625q0.53125 2.875 1.015625 4.671875q0.484375 1.796875 1.1875 3.25l0.21875 0.4375q0.375 0.75 0.375 1.203125q0 0.375 -0.21875 0.65625q-0.21875 0.28125 -0.59375 0.28125zm-4.59375 -14.96875q0.828125 -0.421875 1.40625 -2.265625q0.578125 -1.84375 0.578125 -3.421875q0 -1.1875 -0.3125 -2.234375q-0.171875 -0.59375 -0.609375 -0.90625q-0.421875 -0.328125 -1.0625 -0.328125l-0.078125 0.1875l-0.078125 0.34375l0.078125 4.40625q0.078125 1.9375 0.078125 4.21875z" fill-rule="nonzero"></path><path fill="#000000" fill-opacity="0.0" d="m143.6744 208.82677l671.5276 0" fill-rule="evenodd"></path><path stroke="#000000" stroke-width="1.0" stroke-linejoin="round" stroke-linecap="butt" d="m143.6744 208.82677l671.5276 0" fill-rule="evenodd"></path><path fill="#000000" fill-opacity="0.0" d="m639.8425 121.1811l185.60626 0l0 40.188972l-185.60626 0z" fill-rule="evenodd"></path><path fill="#000000" d="m717.18756 141.77922q-0.9375 0 -1.796875 -0.296875q-0.859375 -0.3125 -1.328125 -0.796875l0.34375 -0.6875q0.46875 0.453125 1.21875 0.734375q0.75 0.28125 1.5625 0.28125q1.125 0 1.6875 -0.40625q0.5625 -0.421875 0.5625 -1.078125q0 -0.5 -0.3125 -0.796875q-0.296875 -0.3125 -0.75 -0.46875q-0.4375 -0.15625 -1.234375 -0.359375q-0.9375 -0.234375 -1.5 -0.453125q-0.5625 -0.21875 -0.96875 -0.671875q-0.40625 -0.46875 -0.40625 -1.25q0 -0.625 0.328125 -1.140625q0.34375 -0.53125 1.03125 -0.84375q0.703125 -0.3125 1.734375 -0.3125q0.71875 0 1.40625 0.203125q0.703125 0.1875 1.203125 0.53125l-0.296875 0.71875q-0.53125 -0.359375 -1.140625 -0.53125q-0.59375 -0.171875 -1.171875 -0.171875q-1.09375 0 -1.65625 0.4375q-0.5625 0.421875 -0.5625 1.09375q0 0.5 0.296875 0.8125q0.3125 0.296875 0.78125 0.46875q0.46875 0.15625 1.234375 0.34375q0.9375 0.234375 1.5 0.453125q0.578125 0.21875 0.96875 0.671875q0.390625 0.453125 0.390625 1.21875q0 0.640625 -0.34375 1.15625q-0.34375 0.515625 -1.046875 0.828125q-0.703125 0.3125 -1.734375 0.3125zm10.380066 -2.96875l-5.28125 0q0.0625 0.984375 0.75 1.59375q0.6875 0.59375 1.734375 0.59375q0.578125 0 1.0625 -0.203125q0.5 -0.203125 0.859375 -0.625l0.484375 0.5625q-0.421875 0.5 -1.046875 0.765625q-0.625 0.265625 -1.390625 0.265625q-0.96875 0 -1.71875 -0.40625q-0.75 -0.421875 -1.171875 -1.15625q-0.421875 -0.734375 -0.421875 -1.65625q0 -0.921875 0.40625 -1.65625q0.40625 -0.734375 1.109375 -1.140625q0.703125 -0.40625 1.578125 -0.40625q0.875 0 1.5625 0.40625q0.703125 0.40625 1.09375 1.140625q0.40625 0.71875 0.40625 1.65625l-0.015625 0.265625zm-3.046875 -2.734375q-0.921875 0 -1.546875 0.578125q-0.609375 0.578125 -0.6875 1.515625l4.46875 0q-0.078125 -0.9375 -0.703125 -1.515625q-0.609375 -0.578125 -1.53125 -0.578125zm8.123047 5.234375q-0.25 0.21875 -0.609375 0.34375q-0.34375 0.109375 -0.71875 0.109375q-0.890625 0 -1.375 -0.484375q-0.484375 -0.484375 -0.484375 -1.359375l0 -3.8125l-1.125 0l0 -0.71875l1.125 0l0 -1.375l0.859375 0l0 1.375l1.921875 0l0 0.71875l-1.921875 0l0 3.765625q0 0.5625 0.28125 0.859375q0.28125 0.296875 0.8125 0.296875q0.265625 0 0.5 -0.078125q0.25 -0.09375 0.4375 -0.25l0.296875 0.609375zm4.8720703 0q-0.25 0.21875 -0.609375 0.34375q-0.34375 0.109375 -0.71875 0.109375q-0.890625 0 -1.375 -0.484375q-0.484375 -0.484375 -0.484375 -1.359375l0 -3.8125l-1.125 0l0 -0.71875l1.125 0l0 -1.375l0.859375 0l0 1.375l1.921875 0l0 0.71875l-1.921875 0l0 3.765625q0 0.5625 0.28125 0.859375q0.28125 0.296875 0.8125 0.296875q0.265625 0 0.5 -0.078125q0.25 -0.09375 0.4375 -0.25l0.296875 0.609375zm1.5438843 -5.921875l0.859375 0l0 6.3125l-0.859375 0l0 -6.3125zm0.4375 -1.375q-0.265625 0 -0.453125 -0.171875q-0.171875 -0.1875 -0.171875 -0.4375q0 -0.25 0.171875 -0.421875q0.1875 -0.1875 0.453125 -0.1875q0.25 0 0.4375 0.171875q0.1875 0.171875 0.1875 0.421875q0 0.265625 -0.1875 0.453125q-0.1875 0.171875 -0.4375 0.171875zm6.0092773 1.328125q1.1875 0 1.890625 0.6875q0.703125 0.6875 0.703125 2.015625l0 3.65625l-0.859375 0l0 -3.578125q0 -0.984375 -0.5 -1.5q-0.484375 -0.515625 -1.390625 -0.515625q-1.015625 0 -1.609375 0.609375q-0.59375 0.609375 -0.59375 1.671875l0 3.3125l-0.859375 0l0 -6.3125l0.8125 0l0 1.171875q0.359375 -0.578125 0.96875 -0.890625q0.625 -0.328125 1.4375 -0.328125zm10.749084 0.046875l0 5.546875q0 1.609375 -0.796875 2.375q-0.78125 0.78125 -2.359375 0.78125q-0.875 0 -1.671875 -0.265625q-0.78125 -0.25 -1.265625 -0.703125l0.4375 -0.65625q0.453125 0.40625 1.09375 0.625q0.65625 0.234375 1.390625 0.234375q1.1875 0 1.75 -0.5625q0.578125 -0.546875 0.578125 -1.71875l0 -0.8125q-0.40625 0.609375 -1.046875 0.921875q-0.640625 0.3125 -1.421875 0.3125q-0.890625 0 -1.625 -0.390625q-0.71875 -0.390625 -1.140625 -1.09375q-0.40625 -0.703125 -0.40625 -1.59375q0 -0.890625 0.40625 -1.578125q0.421875 -0.703125 1.140625 -1.078125q0.71875 -0.390625 1.625 -0.390625q0.8125 0 1.453125 0.328125q0.640625 0.3125 1.046875 0.9375l0 -1.21875l0.8125 0zm-3.234375 5.3125q0.6875 0 1.234375 -0.28125q0.5625 -0.296875 0.859375 -0.828125q0.3125 -0.53125 0.3125 -1.203125q0 -0.671875 -0.3125 -1.1875q-0.296875 -0.53125 -0.84375 -0.8125q-0.546875 -0.296875 -1.25 -0.296875q-0.671875 0 -1.21875 0.28125q-0.546875 0.28125 -0.859375 0.8125q-0.296875 0.53125 -0.296875 1.203125q0 0.671875 0.296875 1.203125q0.3125 0.53125 0.859375 0.828125q0.546875 0.28125 1.21875 0.28125zm7.3101807 1.0625q-0.765625 0 -1.46875 -0.21875q-0.703125 -0.234375 -1.09375 -0.5625l0.390625 -0.671875q0.390625 0.3125 0.984375 0.515625q0.609375 0.1875 1.25 0.1875q0.859375 0 1.265625 -0.265625q0.421875 -0.265625 0.421875 -0.765625q0 -0.34375 -0.234375 -0.53125q-0.21875 -0.203125 -0.5625 -0.296875q-0.34375 -0.109375 -0.921875 -0.21875q-0.765625 -0.140625 -1.234375 -0.28125q-0.46875 -0.15625 -0.796875 -0.515625q-0.328125 -0.359375 -0.328125 -1.0q0 -0.796875 0.65625 -1.296875q0.65625 -0.5 1.828125 -0.5q0.609375 0 1.21875 0.171875q0.625 0.15625 1.015625 0.421875l-0.375 0.671875q-0.78125 -0.53125 -1.859375 -0.53125q-0.8125 0 -1.234375 0.296875q-0.40625 0.28125 -0.40625 0.75q0 0.359375 0.234375 0.578125q0.234375 0.203125 0.578125 0.3125q0.359375 0.09375 0.96875 0.203125q0.75 0.140625 1.203125 0.296875q0.46875 0.140625 0.78125 0.484375q0.328125 0.34375 0.328125 0.96875q0 0.828125 -0.6875 1.3125q-0.6875 0.484375 -1.921875 0.484375zm7.512024 -8.96875l0.78125 0l0 11.234375l-0.78125 0l0 -11.234375zm6.684082 0.5l0.875 0l0 7.640625l4.703125 0l0 0.765625l-5.578125 0l0 -8.40625zm9.458679 8.46875q-0.90625 0 -1.640625 -0.40625q-0.734375 -0.421875 -1.15625 -1.15625q-0.421875 -0.734375 -0.421875 -1.65625q0 -0.921875 0.421875 -1.65625q0.421875 -0.734375 1.15625 -1.140625q0.734375 -0.40625 1.640625 -0.40625q0.921875 0 1.640625 0.40625q0.734375 0.40625 1.140625 1.140625q0.421875 0.734375 0.421875 1.65625q0 0.921875 -0.421875 1.65625q-0.40625 0.734375 -1.140625 1.15625q-0.71875 0.40625 -1.640625 0.40625zm0 -0.765625q0.671875 0 1.203125 -0.296875q0.546875 -0.3125 0.84375 -0.875q0.296875 -0.5625 0.296875 -1.28125q0 -0.71875 -0.296875 -1.28125q-0.296875 -0.5625 -0.84375 -0.859375q-0.53125 -0.3125 -1.203125 -0.3125q-0.671875 0 -1.203125 0.3125q-0.53125 0.296875 -0.84375 0.859375q-0.296875 0.5625 -0.296875 1.28125q0 0.71875 0.296875 1.28125q0.3125 0.5625 0.84375 0.875q0.53125 0.296875 1.203125 0.296875zm10.789673 -5.609375l0 5.546875q0 1.609375 -0.796875 2.375q-0.78125 0.78125 -2.359375 0.78125q-0.875 0 -1.671875 -0.265625q-0.78125 -0.25 -1.265625 -0.703125l0.4375 -0.65625q0.453125 0.40625 1.09375 0.625q0.65625 0.234375 1.390625 0.234375q1.1875 0 1.75 -0.5625q0.578125 -0.546875 0.578125 -1.71875l0 -0.8125q-0.40625 0.609375 -1.046875 0.921875q-0.640625 0.3125 -1.421875 0.3125q-0.890625 0 -1.625 -0.390625q-0.71875 -0.390625 -1.140625 -1.09375q-0.40625 -0.703125 -0.40625 -1.59375q0 -0.890625 0.40625 -1.578125q0.421875 -0.703125 1.140625 -1.078125q0.71875 -0.390625 1.625 -0.390625q0.8125 0 1.453125 0.328125q0.640625 0.3125 1.046875 0.9375l0 -1.21875l0.8125 0zm-3.234375 5.3125q0.6875 0 1.234375 -0.28125q0.5625 -0.296875 0.859375 -0.828125q0.3125 -0.53125 0.3125 -1.203125q0 -0.671875 -0.3125 -1.1875q-0.296875 -0.53125 -0.84375 -0.8125q-0.546875 -0.296875 -1.25 -0.296875q-0.671875 0 -1.21875 0.28125q-0.546875 0.28125 -0.859375 0.8125q-0.296875 0.53125 -0.296875 1.203125q0 0.671875 0.296875 1.203125q0.3125 0.53125 0.859375 0.828125q0.546875 0.28125 1.21875 0.28125zm8.200806 1.0625q-0.90625 0 -1.640625 -0.40625q-0.734375 -0.421875 -1.15625 -1.15625q-0.421875 -0.734375 -0.421875 -1.65625q0 -0.921875 0.421875 -1.65625q0.421875 -0.734375 1.15625 -1.140625q0.734375 -0.40625 1.640625 -0.40625q0.921875 0 1.640625 0.40625q0.734375 0.40625 1.140625 1.140625q0.421875 0.734375 0.421875 1.65625q0 0.921875 -0.421875 1.65625q-0.40625 0.734375 -1.140625 1.15625q-0.71875 0.40625 -1.640625 0.40625zm0 -0.765625q0.671875 0 1.203125 -0.296875q0.546875 -0.3125 0.84375 -0.875q0.296875 -0.5625 0.296875 -1.28125q0 -0.71875 -0.296875 -1.28125q-0.296875 -0.5625 -0.84375 -0.859375q-0.53125 -0.3125 -1.203125 -0.3125q-0.671875 0 -1.203125 0.3125q-0.53125 0.296875 -0.84375 0.859375q-0.296875 0.5625 -0.296875 1.28125q0 0.71875 0.296875 1.28125q0.3125 0.5625 0.84375 0.875q0.53125 0.296875 1.203125 0.296875zm10.633423 -5.609375l0 6.3125l-0.8125 0l0 -1.15625q-0.34375 0.578125 -0.9375 0.90625q-0.578125 0.3125 -1.328125 0.3125q-1.234375 0 -1.953125 -0.6875q-0.71875 -0.6875 -0.71875 -2.03125l0 -3.65625l0.859375 0l0 3.578125q0 1.0 0.484375 1.515625q0.5 0.515625 1.40625 0.515625q1.0 0 1.578125 -0.609375q0.578125 -0.609375 0.578125 -1.6875l0 -3.3125l0.84375 0zm5.716675 5.921875q-0.25 0.21875 -0.609375 0.34375q-0.34375 0.109375 -0.71875 0.109375q-0.890625 0 -1.375 -0.484375q-0.484375 -0.484375 -0.484375 -1.359375l0 -3.8125l-1.125 0l0 -0.71875l1.125 0l0 -1.375l0.859375 0l0 1.375l1.921875 0l0 0.71875l-1.921875 0l0 3.765625q0 0.5625 0.28125 0.859375q0.28125 0.296875 0.8125 0.296875q0.265625 0 0.5 -0.078125q0.25 -0.09375 0.4375 -0.25l0.296875 0.609375z" fill-rule="nonzero"></path><path fill="#f3f3f3" d="m614.7796 182.54338l0 0c0 -1.8496857 1.4994507 -3.3491516 3.349121 -3.3491516l168.89227 0c0.8882446 0 1.7401123 0.3528595 2.368225 0.9809418c0.62805176 0.6280823 0.980896 1.47995 0.980896 2.3682098l0 13.396179c0 1.8496857 -1.4994507 3.3491516 -3.349121 3.3491516l-168.89227 0c-1.8496704 0 -3.349121 -1.499466 -3.349121 -3.3491516z" fill-rule="evenodd"></path><path stroke="#000000" stroke-width="1.0" stroke-linejoin="round" stroke-linecap="butt" d="m614.7796 182.54338l0 0c0 -1.8496857 1.4994507 -3.3491516 3.349121 -3.3491516l168.89227 0c0.8882446 0 1.7401123 0.3528595 2.368225 0.9809418c0.62805176 0.6280823 0.980896 1.47995 0.980896 2.3682098l0 13.396179c0 1.8496857 -1.4994507 3.3491516 -3.349121 3.3491516l-168.89227 0c-1.8496704 0 -3.349121 -1.499466 -3.349121 -3.3491516z" fill-rule="evenodd"></path><path fill="#000000" fill-opacity="0.0" d="m612.2199 171.51152l100.50391 0l0 40.188965l-100.50391 0z" fill-rule="evenodd"></path><path fill="#000000" d="m625.31366 193.38963q-1.046875 0 -2.0 -0.328125q-0.953125 -0.34375 -1.46875 -0.890625l0.390625 -0.75q0.5 0.5 1.34375 0.8125q0.84375 0.3125 1.734375 0.3125q1.25 0 1.875 -0.453125q0.625 -0.453125 0.625 -1.1875q0 -0.5625 -0.34375 -0.890625q-0.328125 -0.34375 -0.828125 -0.515625q-0.484375 -0.1875 -1.375 -0.40625q-1.046875 -0.265625 -1.671875 -0.5q-0.625 -0.25 -1.078125 -0.75q-0.4375 -0.515625 -0.4375 -1.375q0 -0.71875 0.359375 -1.296875q0.375 -0.578125 1.140625 -0.921875q0.78125 -0.34375 1.9375 -0.34375q0.796875 0 1.5625 0.21875q0.765625 0.21875 1.328125 0.609375l-0.34375 0.78125q-0.578125 -0.390625 -1.25 -0.578125q-0.65625 -0.1875 -1.296875 -0.1875q-1.234375 0 -1.859375 0.46875q-0.609375 0.46875 -0.609375 1.21875q0 0.5625 0.328125 0.90625q0.34375 0.328125 0.859375 0.515625q0.515625 0.171875 1.375 0.390625q1.03125 0.25 1.65625 0.5q0.640625 0.25 1.078125 0.75q0.453125 0.5 0.453125 1.34375q0 0.703125 -0.390625 1.296875q-0.375 0.578125 -1.171875 0.921875q-0.78125 0.328125 -1.921875 0.328125zm11.524902 -3.296875l-5.859375 0q0.078125 1.09375 0.828125 1.78125q0.765625 0.671875 1.921875 0.671875q0.65625 0 1.203125 -0.234375q0.546875 -0.234375 0.953125 -0.6875l0.53125 0.609375q-0.46875 0.5625 -1.171875 0.859375q-0.703125 0.28125 -1.53125 0.28125q-1.078125 0 -1.921875 -0.453125q-0.828125 -0.46875 -1.296875 -1.28125q-0.46875 -0.8125 -0.46875 -1.828125q0 -1.03125 0.4375 -1.84375q0.453125 -0.8125 1.234375 -1.265625q0.78125 -0.453125 1.75 -0.453125q0.984375 0 1.75 0.453125q0.78125 0.453125 1.21875 1.265625q0.4375 0.796875 0.4375 1.84375l-0.015625 0.28125zm-3.390625 -3.03125q-1.0 0 -1.6875 0.65625q-0.6875 0.640625 -0.78125 1.671875l4.96875 0q-0.09375 -1.03125 -0.78125 -1.671875q-0.6875 -0.65625 -1.71875 -0.65625zm7.784485 -0.8125q1.375 0 2.109375 0.6875q0.734375 0.6875 0.734375 2.03125l0 4.34375l-0.90625 0l0 -1.09375q-0.3125 0.546875 -0.9375 0.859375q-0.625 0.296875 -1.46875 0.296875q-1.171875 0 -1.875 -0.546875q-0.6875 -0.5625 -0.6875 -1.484375q0 -0.890625 0.640625 -1.4375q0.65625 -0.546875 2.0625 -0.546875l2.234375 0l0 -0.4375q0 -0.90625 -0.515625 -1.375q-0.5 -0.46875 -1.484375 -0.46875q-0.65625 0 -1.28125 0.21875q-0.609375 0.21875 -1.046875 0.609375l-0.421875 -0.71875q0.53125 -0.453125 1.28125 -0.6875q0.75 -0.25 1.5625 -0.25zm-0.328125 6.375q0.796875 0 1.375 -0.359375q0.578125 -0.359375 0.859375 -1.0625l0 -1.140625l-2.203125 0q-1.796875 0 -1.796875 1.25q0 0.609375 0.453125 0.96875q0.46875 0.34375 1.3125 0.34375zm6.6448364 -4.953125q0.34375 -0.703125 1.0 -1.0625q0.65625 -0.359375 1.625 -0.359375l0 0.921875l-0.21875 -0.015625q-1.109375 0 -1.734375 0.6875q-0.625 0.671875 -0.625 1.890625l0 3.578125l-0.953125 0l0 -7.015625l0.90625 0l0 1.375zm7.3445435 5.703125q-1.03125 0 -1.859375 -0.453125q-0.8125 -0.453125 -1.28125 -1.265625q-0.46875 -0.828125 -0.46875 -1.84375q0 -1.03125 0.46875 -1.84375q0.46875 -0.8125 1.28125 -1.265625q0.828125 -0.453125 1.859375 -0.453125q0.90625 0 1.625 0.359375q0.71875 0.34375 1.125 1.03125l-0.703125 0.46875q-0.34375 -0.515625 -0.890625 -0.765625q-0.53125 -0.265625 -1.15625 -0.265625q-0.75 0 -1.359375 0.34375q-0.609375 0.328125 -0.953125 0.953125q-0.328125 0.625 -0.328125 1.4375q0 0.8125 0.328125 1.4375q0.34375 0.609375 0.953125 0.953125q0.609375 0.34375 1.359375 0.34375q0.625 0 1.15625 -0.25q0.546875 -0.265625 0.890625 -0.78125l0.703125 0.484375q-0.40625 0.671875 -1.125 1.03125q-0.71875 0.34375 -1.625 0.34375zm8.175598 -7.125q1.3125 0 2.09375 0.765625q0.78125 0.765625 0.78125 2.234375l0 4.0625l-0.9375 0l0 -3.96875q0 -1.09375 -0.546875 -1.65625q-0.546875 -0.578125 -1.5625 -0.578125q-1.140625 0 -1.796875 0.671875q-0.65625 0.671875 -0.65625 1.859375l0 3.671875l-0.953125 0l0 -9.890625l0.953125 0l0 4.109375q0.390625 -0.609375 1.0625 -0.9375q0.6875 -0.34375 1.5625 -0.34375zm5.5387573 7.125q-0.28125 0 -0.5 -0.203125q-0.203125 -0.21875 -0.203125 -0.53125q0 -0.296875 0.203125 -0.5q0.21875 -0.21875 0.5 -0.21875q0.296875 0 0.5 0.21875q0.21875 0.203125 0.21875 0.5q0 0.3125 -0.21875 0.53125q-0.203125 0.203125 -0.5 0.203125zm2.8255005 0q-0.28125 0 -0.5 -0.203125q-0.203125 -0.21875 -0.203125 -0.53125q0 -0.296875 0.203125 -0.5q0.21875 -0.21875 0.5 -0.21875q0.296875 0 0.5 0.21875q0.21875 0.203125 0.21875 0.5q0 0.3125 -0.21875 0.53125q-0.203125 0.203125 -0.5 0.203125zm2.8255615 0q-0.28125 0 -0.5 -0.203125q-0.203125 -0.21875 -0.203125 -0.53125q0 -0.296875 0.203125 -0.5q0.21875 -0.21875 0.5 -0.21875q0.296875 0 0.5 0.21875q0.21875 0.203125 0.21875 0.5q0 0.3125 -0.21875 0.53125q-0.203125 0.203125 -0.5 0.203125z" fill-rule="nonzero"></path><path fill="#000000" fill-opacity="0.0" d="m808.7116 189.7621l0 0" fill-rule="evenodd"></path><path stroke="#000000" stroke-width="1.0" stroke-linejoin="round" stroke-linecap="butt" d="m808.7116 189.7621l0 0" fill-rule="evenodd"></path><path fill="#000000" fill-opacity="0.0" d="m807.8567 191.03381l8.535828 10.08226" fill-rule="evenodd"></path><path stroke="#000000" stroke-width="1.0" stroke-linejoin="round" stroke-linecap="butt" d="m807.8567 191.03381l8.535828 10.08226" fill-rule="evenodd"></path><path fill="#ffffff" d="m796.31604 184.6284l0 0c0 -4.009659 3.2509155 -7.260132 7.2611084 -7.260132l0 0c1.9257812 0 3.772705 0.76490784 5.1344604 2.1264343c1.3616943 1.3615417 2.126709 3.208191 2.126709 5.1336975l0 0c0 4.009659 -3.2509155 7.260147 -7.2611694 7.260147l0 0c-4.010193 0 -7.2611084 -3.2504883 -7.2611084 -7.260147z" fill-rule="evenodd"></path><path stroke="#000000" stroke-width="1.0" stroke-linejoin="round" stroke-linecap="butt" d="m796.31604 184.6284l0 0c0 -4.009659 3.2509155 -7.260132 7.2611084 -7.260132l0 0c1.9257812 0 3.772705 0.76490784 5.1344604 2.1264343c1.3616943 1.3615417 2.126709 3.208191 2.126709 5.1336975l0 0c0 4.009659 -3.2509155 7.260147 -7.2611694 7.260147l0 0c-4.010193 0 -7.2611084 -3.2504883 -7.2611084 -7.260147z" fill-rule="evenodd"></path><path fill="#000000" fill-opacity="0.0" d="m144.86613 264.91602l308.8819 0l0 56.22046l-308.8819 0z" fill-rule="evenodd"></path><path fill="#000000" d="m160.06926 288.49225l3.0625 -10.171875l3.09375 0l-4.703125 13.515625l-2.90625 0l-4.6875 -13.515625l3.09375 0l3.046875 10.171875zm9.853867 3.34375l-2.6875 0l0 -10.03125l2.6875 0l0 10.03125zm-2.84375 -12.640625q0 -0.59375 0.390625 -0.984375q0.40625 -0.390625 1.109375 -0.390625q0.6875 0 1.09375 0.390625q0.40625 0.390625 0.40625 0.984375q0 0.609375 -0.421875 1.0q-0.40625 0.390625 -1.078125 0.390625q-0.671875 0 -1.09375 -0.390625q-0.40625 -0.390625 -0.40625 -1.0zm9.587082 12.828125q-2.21875 0 -3.609375 -1.359375q-1.375 -1.359375 -1.375 -3.609375l0 -0.25q0 -1.515625 0.578125 -2.703125q0.59375 -1.203125 1.65625 -1.84375q1.078125 -0.640625 2.453125 -0.640625q2.046875 0 3.234375 1.296875q1.1875 1.296875 1.1875 3.6875l0 1.09375l-6.390625 0q0.125 0.984375 0.78125 1.578125q0.65625 0.59375 1.65625 0.59375q1.546875 0 2.421875 -1.125l1.3125 1.46875q-0.59375 0.859375 -1.625 1.34375q-1.03125 0.46875 -2.28125 0.46875zm-0.3125 -8.234375q-0.796875 0 -1.296875 0.53125q-0.5 0.53125 -0.625 1.546875l3.71875 0l0 -0.21875q-0.015625 -0.890625 -0.484375 -1.375q-0.453125 -0.484375 -1.3125 -0.484375zm14.506088 4.40625l1.3125 -6.390625l2.59375 0l-2.5625 10.03125l-2.25 0l-1.90625 -6.3125l-1.890625 6.3125l-2.234375 0l-2.5625 -10.03125l2.578125 0l1.3125 6.375l1.84375 -6.375l1.9375 0l1.828125 6.390625zm20.402512 -0.859375q-0.15625 2.1875 -1.609375 3.4375q-1.453125 1.25 -3.828125 1.25q-2.59375 0 -4.09375 -1.75q-1.484375 -1.75 -1.484375 -4.796875l0 -0.828125q0 -1.953125 0.6875 -3.4375q0.6875 -1.484375 1.953125 -2.265625q1.28125 -0.796875 2.96875 -0.796875q2.34375 0 3.765625 1.25q1.4375 1.25 1.65625 3.515625l-2.78125 0q-0.109375 -1.3125 -0.734375 -1.890625q-0.625 -0.59375 -1.90625 -0.59375q-1.390625 0 -2.078125 1.0q-0.6875 0.984375 -0.703125 3.09375l0 1.015625q0 2.1875 0.65625 3.203125q0.65625 1.0 2.09375 1.0q1.28125 0 1.921875 -0.578125q0.640625 -0.59375 0.734375 -1.828125l2.78125 0zm7.066101 -3.03125q-0.546875 -0.0625 -0.96875 -0.0625q-1.515625 0 -1.984375 1.03125l0 6.5625l-2.6875 0l0 -10.03125l2.53125 0l0.078125 1.1875q0.796875 -1.375 2.234375 -1.375q0.4375 0 0.828125 0.109375l-0.03125 2.578125zm5.7891693 7.71875q-2.21875 0 -3.609375 -1.359375q-1.375 -1.359375 -1.375 -3.609375l0 -0.25q0 -1.515625 0.578125 -2.703125q0.59375 -1.203125 1.65625 -1.84375q1.078125 -0.640625 2.453125 -0.640625q2.046875 0 3.234375 1.296875q1.1875 1.296875 1.1875 3.6875l0 1.09375l-6.390625 0q0.125 0.984375 0.78125 1.578125q0.65625 0.59375 1.65625 0.59375q1.546875 0 2.421875 -1.125l1.3125 1.46875q-0.59375 0.859375 -1.625 1.34375q-1.03125 0.46875 -2.28125 0.46875zm-0.3125 -8.234375q-0.796875 0 -1.296875 0.53125q-0.5 0.53125 -0.625 1.546875l3.71875 0l0 -0.21875q-0.015625 -0.890625 -0.484375 -1.375q-0.453125 -0.484375 -1.3125 -0.484375zm5.3498383 2.953125q0 -2.34375 1.046875 -3.734375q1.0625 -1.390625 2.890625 -1.390625q1.46875 0 2.421875 1.09375l0 -5.125l2.6875 0l0 14.25l-2.421875 0l-0.125 -1.0625q-1.0 1.25 -2.578125 1.25q-1.78125 0 -2.859375 -1.390625q-1.0625 -1.40625 -1.0625 -3.890625zm2.6875 0.1875q0 1.421875 0.484375 2.171875q0.5 0.75 1.4375 0.75q1.234375 0 1.75 -1.046875l0 -3.96875q-0.5 -1.046875 -1.734375 -1.046875q-1.9375 0 -1.9375 3.140625zm11.07486 4.90625l-2.6875 0l0 -10.03125l2.6875 0l0 10.03125zm-2.84375 -12.640625q0 -0.59375 0.390625 -0.984375q0.40625 -0.390625 1.109375 -0.390625q0.6875 0 1.09375 0.390625q0.40625 0.390625 0.40625 0.984375q0 0.609375 -0.421875 1.0q-0.40625 0.390625 -1.078125 0.390625q-0.671875 0 -1.09375 -0.390625q-0.40625 -0.390625 -0.40625 -1.0zm8.165207 0.140625l0 2.46875l1.71875 0l0 1.953125l-1.71875 0l0 5.015625q0 0.5625 0.21875 0.8125q0.21875 0.234375 0.8125 0.234375q0.453125 0 0.796875 -0.078125l0 2.03125q-0.796875 0.25 -1.625 0.25q-2.828125 0 -2.875 -2.84375l0 -5.421875l-1.46875 0l0 -1.953125l1.46875 0l0 -2.46875l2.671875 0zm8.538147 9.71875q0 -0.484375 -0.484375 -0.765625q-0.484375 -0.28125 -1.5625 -0.5q-3.59375 -0.765625 -3.59375 -3.046875q0 -1.34375 1.109375 -2.234375q1.109375 -0.890625 2.90625 -0.890625q1.90625 0 3.046875 0.90625q1.15625 0.890625 1.15625 2.328125l-2.6875 0q0 -0.578125 -0.375 -0.953125q-0.359375 -0.375 -1.15625 -0.375q-0.671875 0 -1.046875 0.3125q-0.359375 0.296875 -0.359375 0.765625q0 0.453125 0.421875 0.734375q0.421875 0.265625 1.421875 0.46875q1.0 0.203125 1.6875 0.453125q2.125 0.765625 2.125 2.6875q0 1.375 -1.1875 2.234375q-1.171875 0.84375 -3.03125 0.84375q-1.265625 0 -2.25 -0.453125q-0.96875 -0.453125 -1.53125 -1.234375q-0.5625 -0.78125 -0.5625 -1.6875l2.546875 0q0.03125 0.703125 0.515625 1.09375q0.5 0.375 1.328125 0.375q0.765625 0 1.15625 -0.28125q0.40625 -0.296875 0.40625 -0.78125z" fill-rule="nonzero"></path><path fill="#ffffff" d="m265.0558 219.41864l100.50394 0l0 31.905502l-100.50394 0z" fill-rule="evenodd"></path><path stroke="#000000" stroke-width="1.0" stroke-linejoin="round" stroke-linecap="butt" d="m265.0558 219.41864l100.50394 0l0 31.905502l-100.50394 0z" fill-rule="evenodd"></path><path fill="#ffffff" d="m153.45998 219.41864l100.50394 0l0 31.905502l-100.50394 0z" fill-rule="evenodd"></path><path stroke="#000000" stroke-width="1.0" stroke-linejoin="round" stroke-linecap="butt" d="m153.45998 219.41864l100.50394 0l0 31.905502l-100.50394 0z" fill-rule="evenodd"></path><path fill="#000000" fill-opacity="0.0" d="m153.45932 216.91847l100.50394 0l0 31.905502l-100.50394 0z" fill-rule="evenodd"></path><path fill="#000000" d="m169.5687 237.0141l-4.84375 0l-1.09375 2.984375l-0.953125 0l4.03125 -10.671875l0.859375 0l4.03125 10.671875l-0.9375 0l-1.09375 -2.984375zm-4.5625 -0.765625l4.265625 0l-2.125 -5.8125l-2.140625 5.8125zm7.403 -0.28125q0 -1.84375 0.8125 -2.9375q0.828125 -1.109375 2.25 -1.109375q1.59375 0 2.4375 1.28125l0 -4.453125l0.875 0l0 11.25l-0.828125 0l-0.03125 -1.0625q-0.84375 1.203125 -2.46875 1.203125q-1.375 0 -2.21875 -1.09375q-0.828125 -1.109375 -0.828125 -2.984375l0 -0.09375zm0.875 0.15625q0 1.515625 0.609375 2.390625q0.609375 0.875 1.71875 0.875q1.625 0 2.296875 -1.4375l0 -3.71875q-0.671875 -1.546875 -2.28125 -1.546875q-1.109375 0 -1.734375 0.875q-0.609375 0.859375 -0.609375 2.5625zm7.2689514 -0.15625q0 -1.84375 0.8125 -2.9375q0.828125 -1.109375 2.25 -1.109375q1.59375 0 2.4375 1.28125l0 -4.453125l0.875 0l0 11.25l-0.828125 0l-0.03125 -1.0625q-0.84375 1.203125 -2.46875 1.203125q-1.375 0 -2.21875 -1.09375q-0.828125 -1.109375 -0.828125 -2.984375l0 -0.09375zm0.875 0.15625q0 1.515625 0.609375 2.390625q0.609375 0.875 1.71875 0.875q1.625 0 2.296875 -1.4375l0 -3.71875q-0.671875 -1.546875 -2.28125 -1.546875q-1.109375 0 -1.734375 0.875q-0.609375 0.859375 -0.609375 2.5625zm16.176575 3.875q-0.125 -0.375 -0.15625 -1.109375q-0.46875 0.609375 -1.1875 0.9375q-0.703125 0.3125 -1.515625 0.3125q-1.140625 0 -1.84375 -0.625q-0.703125 -0.640625 -0.703125 -1.625q0 -1.15625 0.953125 -1.828125q0.96875 -0.671875 2.6875 -0.671875l1.59375 0l0 -0.90625q0 -0.84375 -0.53125 -1.328125q-0.515625 -0.484375 -1.515625 -0.484375q-0.921875 0 -1.53125 0.46875q-0.59375 0.46875 -0.59375 1.125l-0.875 -0.015625q0 -0.9375 0.875 -1.625q0.890625 -0.703125 2.171875 -0.703125q1.3125 0 2.078125 0.671875q0.765625 0.65625 0.796875 1.84375l0 3.75q0 1.15625 0.234375 1.71875l0 0.09375l-0.9375 0zm-2.75 -0.625q0.875 0 1.5625 -0.421875q0.703125 -0.4375 1.015625 -1.140625l0 -1.75l-1.5625 0q-1.3125 0.015625 -2.0625 0.484375q-0.734375 0.46875 -0.734375 1.28125q0 0.65625 0.484375 1.109375q0.5 0.4375 1.296875 0.4375zm16.930038 -2.703125q-0.1875 1.6875 -1.21875 2.578125q-1.015625 0.890625 -2.71875 0.890625q-1.1875 0 -2.09375 -0.59375q-0.90625 -0.59375 -1.40625 -1.671875q-0.5 -1.09375 -0.515625 -2.484375l0 -1.390625q0 -1.421875 0.5 -2.515625q0.5 -1.09375 1.4375 -1.6875q0.9375 -0.609375 2.15625 -0.609375q1.703125 0 2.6875 0.9375q1.0 0.921875 1.171875 2.546875l-0.921875 0q-0.328125 -2.71875 -2.9375 -2.71875q-1.453125 0 -2.3125 1.09375q-0.859375 1.078125 -0.859375 2.984375l0 1.3125q0 1.84375 0.828125 2.953125q0.84375 1.09375 2.265625 1.09375q1.421875 0 2.140625 -0.671875q0.71875 -0.6875 0.875 -2.046875l0.921875 0zm5.424225 -3.84375q-0.28125 -0.0625 -0.59375 -0.0625q-0.828125 0 -1.40625 0.46875q-0.5625 0.453125 -0.796875 1.328125l0 5.4375l-0.875 0l0 -7.921875l0.859375 0l0.015625 1.25q0.6875 -1.40625 2.234375 -1.40625q0.359375 0 0.578125 0.109375l-0.015625 0.796875zm4.3369904 7.3125q-1.015625 0 -1.84375 -0.484375q-0.8125 -0.5 -1.265625 -1.390625q-0.453125 -0.890625 -0.453125 -2.0l0 -0.3125q0 -1.140625 0.4375 -2.0625q0.453125 -0.921875 1.234375 -1.4375q0.796875 -0.53125 1.71875 -0.53125q1.453125 0 2.296875 1.0q0.84375 0.984375 0.84375 2.6875l0 0.484375l-5.65625 0l0 0.171875q0 1.34375 0.765625 2.25q0.78125 0.890625 1.953125 0.890625q0.703125 0 1.234375 -0.25q0.546875 -0.265625 0.984375 -0.828125l0.546875 0.421875q-0.96875 1.390625 -2.796875 1.390625zm-0.171875 -7.46875q-0.984375 0 -1.671875 0.734375q-0.671875 0.71875 -0.8125 1.9375l4.75 0l0 -0.09375q-0.03125 -1.140625 -0.65625 -1.859375q-0.609375 -0.71875 -1.609375 -0.71875zm4.3214417 3.296875q0 -1.84375 0.8125 -2.9375q0.828125 -1.109375 2.25 -1.109375q1.59375 0 2.4375 1.28125l0 -4.453125l0.875 0l0 11.25l-0.828125 0l-0.03125 -1.0625q-0.84375 1.203125 -2.46875 1.203125q-1.375 0 -2.21875 -1.09375q-0.828125 -1.109375 -0.828125 -2.984375l0 -0.09375zm0.875 0.15625q0 1.515625 0.609375 2.390625q0.609375 0.875 1.71875 0.875q1.625 0 2.296875 -1.4375l0 -3.71875q-0.671875 -1.546875 -2.28125 -1.546875q-1.109375 0 -1.734375 0.875q-0.609375 0.859375 -0.609375 2.5625zm8.597076 3.875l-0.875 0l0 -7.921875l0.875 0l0 7.921875zm-1.03125 -10.21875q0 -0.25 0.15625 -0.421875q0.15625 -0.171875 0.4375 -0.171875q0.28125 0 0.4375 0.171875q0.171875 0.171875 0.171875 0.421875q0 0.25 -0.171875 0.421875q-0.15625 0.171875 -0.4375 0.171875q-0.28125 0 -0.4375 -0.171875q-0.15625 -0.171875 -0.15625 -0.421875zm4.691025 0.265625l0 2.03125l1.640625 0l0 0.71875l-1.640625 0l0 5.28125q0 0.65625 0.234375 0.984375q0.25 0.3125 0.796875 0.3125q0.21875 0 0.71875 -0.078125l0.03125 0.71875q-0.34375 0.125 -0.9375 0.125q-0.890625 0 -1.3125 -0.515625q-0.40625 -0.53125 -0.40625 -1.546875l0 -5.28125l-1.453125 0l0 -0.71875l1.453125 0l0 -2.03125l0.875 0z" fill-rule="nonzero"></path><path fill="#ffffff" d="m376.65158 219.41864l100.50394 0l0 31.905502l-100.50394 0z" fill-rule="evenodd"></path><path stroke="#000000" stroke-width="1.0" stroke-linejoin="round" stroke-linecap="butt" d="m376.65158 219.41864l100.50394 0l0 31.905502l-100.50394 0z" fill-rule="evenodd"></path><path fill="#000000" fill-opacity="0.0" d="m265.0551 216.64783l100.50394 0l0 31.905518l-100.50394 0z" fill-rule="evenodd"></path><path fill="#999999" d="m278.6176 238.41533l0.0625 0.21875l0.0625 -0.21875l3.359375 -9.359375l0.984375 0l-3.96875 10.671875l-0.859375 0l-3.96875 -10.671875l0.96875 0l3.359375 9.359375zm6.601013 1.3125l-0.875 0l0 -7.921875l0.875 0l0 7.921875zm-1.03125 -10.21875q0 -0.25 0.15625 -0.421875q0.15625 -0.171875 0.4375 -0.171875q0.28125 0 0.4375 0.171875q0.171875 0.171875 0.171875 0.421875q0 0.25 -0.171875 0.421875q-0.15625 0.171875 -0.4375 0.171875q-0.28125 0 -0.4375 -0.171875q-0.15625 -0.171875 -0.15625 -0.421875zm6.4097595 10.359375q-1.015625 0 -1.84375 -0.484375q-0.8125 -0.5 -1.265625 -1.390625q-0.453125 -0.890625 -0.453125 -2.0l0 -0.3125q0 -1.140625 0.4375 -2.0625q0.453125 -0.921875 1.234375 -1.4375q0.796875 -0.53125 1.71875 -0.53125q1.453125 0 2.296875 1.0q0.84375 0.984375 0.84375 2.6875l0 0.484375l-5.65625 0l0 0.171875q0 1.34375 0.765625 2.25q0.78125 0.890625 1.953125 0.890625q0.703125 0 1.234375 -0.25q0.546875 -0.265625 0.984375 -0.828125l0.546875 0.421875q-0.96875 1.390625 -2.796875 1.390625zm-0.171875 -7.46875q-0.984375 0 -1.671875 0.734375q-0.671875 0.71875 -0.8125 1.9375l4.75 0l0 -0.09375q-0.03125 -1.140625 -0.65625 -1.859375q-0.609375 -0.71875 -1.609375 -0.71875zm6.5714417 5.5l0.125 0.6875l0.171875 -0.71875l1.90625 -6.0625l0.75 0l1.875 6.015625l0.21875 0.828125l0.15625 -0.765625l1.625 -6.078125l0.90625 0l-2.296875 7.921875l-0.75 0l-2.03125 -6.28125l-0.09375 -0.4375l-0.09375 0.4375l-2.0 6.28125l-0.75 0l-2.296875 -7.921875l0.890625 0l1.6875 6.09375zm20.472687 -1.5q-0.1875 1.6875 -1.21875 2.578125q-1.015625 0.890625 -2.71875 0.890625q-1.1875 0 -2.09375 -0.59375q-0.90625 -0.59375 -1.40625 -1.671875q-0.5 -1.09375 -0.515625 -2.484375l0 -1.390625q0 -1.421875 0.5 -2.515625q0.5 -1.09375 1.4375 -1.6875q0.9375 -0.609375 2.15625 -0.609375q1.703125 0 2.6875 0.9375q1.0 0.921875 1.171875 2.546875l-0.921875 0q-0.328125 -2.71875 -2.9375 -2.71875q-1.453125 0 -2.3125 1.09375q-0.859375 1.078125 -0.859375 2.984375l0 1.3125q0 1.84375 0.828125 2.953125q0.84375 1.09375 2.265625 1.09375q1.421875 0 2.140625 -0.671875q0.71875 -0.6875 0.875 -2.046875l0.921875 0zm5.424225 -3.84375q-0.28125 -0.0625 -0.59375 -0.0625q-0.828125 0 -1.40625 0.46875q-0.5625 0.453125 -0.796875 1.328125l0 5.4375l-0.875 0l0 -7.921875l0.859375 0l0.015625 1.25q0.6875 -1.40625 2.234375 -1.40625q0.359375 0 0.578125 0.109375l-0.015625 0.796875zm4.3370056 7.3125q-1.015625 0 -1.84375 -0.484375q-0.8125 -0.5 -1.265625 -1.390625q-0.453125 -0.890625 -0.453125 -2.0l0 -0.3125q0 -1.140625 0.4375 -2.0625q0.453125 -0.921875 1.234375 -1.4375q0.796875 -0.53125 1.71875 -0.53125q1.453125 0 2.296875 1.0q0.84375 0.984375 0.84375 2.6875l0 0.484375l-5.65625 0l0 0.171875q0 1.34375 0.765625 2.25q0.78125 0.890625 1.953125 0.890625q0.703125 0 1.234375 -0.25q0.546875 -0.265625 0.984375 -0.828125l0.546875 0.421875q-0.96875 1.390625 -2.796875 1.390625zm-0.171875 -7.46875q-0.984375 0 -1.671875 0.734375q-0.671875 0.71875 -0.8125 1.9375l4.75 0l0 -0.09375q-0.03125 -1.140625 -0.65625 -1.859375q-0.609375 -0.71875 -1.609375 -0.71875zm4.3214417 3.296875q0 -1.84375 0.8125 -2.9375q0.828125 -1.109375 2.25 -1.109375q1.59375 0 2.4375 1.28125l0 -4.453125l0.875 0l0 11.25l-0.828125 0l-0.03125 -1.0625q-0.84375 1.203125 -2.46875 1.203125q-1.375 0 -2.21875 -1.09375q-0.828125 -1.109375 -0.828125 -2.984375l0 -0.09375zm0.875 0.15625q0 1.515625 0.609375 2.390625q0.609375 0.875 1.71875 0.875q1.625 0 2.296875 -1.4375l0 -3.71875q-0.671875 -1.546875 -2.28125 -1.546875q-1.109375 0 -1.734375 0.875q-0.609375 0.859375 -0.609375 2.5625zm8.597076 3.875l-0.875 0l0 -7.921875l0.875 0l0 7.921875zm-1.03125 -10.21875q0 -0.25 0.15625 -0.421875q0.15625 -0.171875 0.4375 -0.171875q0.28125 0 0.4375 0.171875q0.171875 0.171875 0.171875 0.421875q0 0.25 -0.171875 0.421875q-0.15625 0.171875 -0.4375 0.171875q-0.28125 0 -0.4375 -0.171875q-0.15625 -0.171875 -0.15625 -0.421875zm4.6910095 0.265625l0 2.03125l1.640625 0l0 0.71875l-1.640625 0l0 5.28125q0 0.65625 0.234375 0.984375q0.25 0.3125 0.796875 0.3125q0.21875 0 0.71875 -0.078125l0.03125 0.71875q-0.34375 0.125 -0.9375 0.125q-0.890625 0 -1.3125 -0.515625q-0.40625 -0.53125 -0.40625 -1.546875l0 -5.28125l-1.453125 0l0 -0.71875l1.453125 0l0 -2.03125l0.875 0zm8.099518 7.9375q0 -0.65625 -0.53125 -1.046875q-0.515625 -0.390625 -1.578125 -0.609375q-1.046875 -0.234375 -1.640625 -0.515625q-0.578125 -0.296875 -0.859375 -0.703125q-0.28125 -0.421875 -0.28125 -1.015625q0 -0.9375 0.78125 -1.546875q0.796875 -0.625 2.015625 -0.625q1.328125 0 2.125 0.65625q0.796875 0.65625 0.796875 1.71875l-0.875 0q0 -0.703125 -0.578125 -1.15625q-0.578125 -0.46875 -1.46875 -0.46875q-0.859375 0 -1.390625 0.390625q-0.53125 0.375 -0.53125 1.0q0 0.59375 0.4375 0.921875q0.4375 0.328125 1.59375 0.59375q1.15625 0.265625 1.734375 0.578125q0.578125 0.3125 0.84375 0.75q0.28125 0.421875 0.28125 1.03125q0 1.0 -0.8125 1.609375q-0.796875 0.59375 -2.109375 0.59375q-1.375 0 -2.25 -0.65625q-0.859375 -0.671875 -0.859375 -1.703125l0.890625 0q0.046875 0.765625 0.640625 1.203125q0.59375 0.421875 1.578125 0.421875q0.921875 0 1.484375 -0.40625q0.5625 -0.40625 0.5625 -1.015625z" fill-rule="nonzero"></path><path fill="#000000" fill-opacity="0.0" d="m376.6509 216.91876l100.50394 0l0 31.905518l-100.50394 0z" fill-rule="evenodd"></path><path fill="#000000" d="m392.76028 237.01439l-4.84375 0l-1.09375 2.984375l-0.953125 0l4.03125 -10.671875l0.859375 0l4.03125 10.671875l-0.9375 0l-1.09375 -2.984375zm-4.5625 -0.765625l4.265625 0l-2.125 -5.8125l-2.140625 5.8125zm8.590515 -4.171875l0.015625 1.359375q0.453125 -0.734375 1.109375 -1.125q0.671875 -0.390625 1.484375 -0.390625q1.265625 0 1.890625 0.71875q0.625 0.71875 0.640625 2.15625l0 5.203125l-0.875 0l0 -5.203125q-0.015625 -1.0625 -0.453125 -1.578125q-0.4375 -0.53125 -1.421875 -0.53125q-0.8125 0 -1.4375 0.515625q-0.625 0.5 -0.921875 1.375l0 5.421875l-0.875 0l0 -7.921875l0.84375 0zm6.7227783 3.84375q0 -1.140625 0.4375 -2.046875q0.453125 -0.921875 1.265625 -1.4375q0.8125 -0.515625 1.828125 -0.515625q1.578125 0 2.5625 1.109375q0.984375 1.109375 0.984375 2.953125l0 0.171875q0 1.15625 -0.453125 2.078125q-0.4375 0.921875 -1.25 1.421875q-0.796875 0.484375 -1.828125 0.484375q-1.578125 0 -2.5625 -1.109375q-0.984375 -1.109375 -0.984375 -2.9375l0 -0.171875zm0.875 0.234375q0 1.421875 0.734375 2.34375q0.75 0.90625 1.9375 0.90625q1.1875 0 1.921875 -0.90625q0.734375 -0.921875 0.734375 -2.40625l0 -0.171875q0 -0.90625 -0.34375 -1.65625q-0.328125 -0.765625 -0.9375 -1.171875q-0.609375 -0.421875 -1.390625 -0.421875q-1.171875 0 -1.921875 0.921875q-0.734375 0.921875 -0.734375 2.40625l0 0.15625zm9.177124 -6.109375l0 2.03125l1.640625 0l0 0.71875l-1.640625 0l0 5.28125q0 0.65625 0.234375 0.984375q0.25 0.3125 0.796875 0.3125q0.21875 0 0.71875 -0.078125l0.03125 0.71875q-0.34375 0.125 -0.9375 0.125q-0.890625 0 -1.3125 -0.515625q-0.40625 -0.53125 -0.40625 -1.546875l0 -5.28125l-1.453125 0l0 -0.71875l1.453125 0l0 -2.03125l0.875 0zm4.224518 3.375q0.4375 -0.71875 1.109375 -1.109375q0.671875 -0.390625 1.46875 -0.390625q1.265625 0 1.890625 0.71875q0.625 0.71875 0.640625 2.15625l0 5.203125l-0.875 0l0 -5.203125q-0.015625 -1.0625 -0.453125 -1.578125q-0.4375 -0.53125 -1.421875 -0.53125q-0.8125 0 -1.4375 0.515625q-0.625 0.5 -0.921875 1.375l0 5.421875l-0.875 0l0 -11.25l0.875 0l0 4.671875zm10.246887 6.71875q-1.015625 0 -1.84375 -0.484375q-0.8125 -0.5 -1.265625 -1.390625q-0.453125 -0.890625 -0.453125 -2.0l0 -0.3125q0 -1.140625 0.4375 -2.0625q0.453125 -0.921875 1.234375 -1.4375q0.796875 -0.53125 1.71875 -0.53125q1.453125 0 2.296875 1.0q0.84375 0.984375 0.84375 2.6875l0 0.484375l-5.65625 0l0 0.171875q0 1.34375 0.765625 2.25q0.78125 0.890625 1.953125 0.890625q0.703125 0 1.234375 -0.25q0.546875 -0.265625 0.984375 -0.828125l0.546875 0.421875q-0.96875 1.390625 -2.796875 1.390625zm-0.171875 -7.46875q-0.984375 0 -1.671875 0.734375q-0.671875 0.71875 -0.8125 1.9375l4.75 0l0 -0.09375q-0.03125 -1.140625 -0.65625 -1.859375q-0.609375 -0.71875 -1.609375 -0.71875zm8.337067 0.15625q-0.28125 -0.0625 -0.59375 -0.0625q-0.828125 0 -1.40625 0.46875q-0.5625 0.453125 -0.796875 1.328125l0 5.4375l-0.875 0l0 -7.921875l0.859375 0l0.015625 1.25q0.6875 -1.40625 2.234375 -1.40625q0.359375 0 0.578125 0.109375l-0.015625 0.796875zm5.8070984 7.171875l-0.875 0l0 -11.25l0.875 0l0 11.25zm3.28479 0l-0.875 0l0 -7.921875l0.875 0l0 7.921875zm-1.03125 -10.21875q0 -0.25 0.15625 -0.421875q0.15625 -0.171875 0.4375 -0.171875q0.28125 0 0.4375 0.171875q0.171875 0.171875 0.171875 0.421875q0 0.25 -0.171875 0.421875q-0.15625 0.171875 -0.4375 0.171875q-0.28125 0 -0.4375 -0.171875q-0.15625 -0.171875 -0.15625 -0.421875zm4.1753845 2.296875l0.015625 1.359375q0.453125 -0.734375 1.109375 -1.125q0.671875 -0.390625 1.484375 -0.390625q1.265625 0 1.890625 0.71875q0.625 0.71875 0.640625 2.15625l0 5.203125l-0.875 0l0 -5.203125q-0.015625 -1.0625 -0.453125 -1.578125q-0.4375 -0.53125 -1.421875 -0.53125q-0.8125 0 -1.4375 0.515625q-0.625 0.5 -0.921875 1.375l0 5.421875l-0.875 0l0 -7.921875l0.84375 0zm9.097809 3.9375l-1.015625 0.953125l0 3.03125l-0.875 0l0 -11.25l0.875 0l0 7.203125l0.828125 -0.890625l3.03125 -2.984375l1.109375 0l-3.359375 3.34375l3.65625 4.578125l-1.046875 0l-3.203125 -3.984375z" fill-rule="nonzero"></path><path fill="#f3f3f3" d="m143.09186 314.66928l671.5276 0l0 221.82675l-671.5276 0z" fill-rule="evenodd"></path><path stroke="#000000" stroke-width="1.0" stroke-linejoin="round" stroke-linecap="butt" d="m143.09186 314.66928l671.5276 0l0 221.82675l-671.5276 0z" fill-rule="evenodd"></path><path fill="#ffffff" d="m160.92633 331.0l635.40155 0l0 192.18896l-635.40155 0z" fill-rule="evenodd"></path><path stroke="#000000" stroke-width="1.0" stroke-linejoin="round" stroke-linecap="butt" d="m160.92633 331.0l635.40155 0l0 192.18896l-635.40155 0z" fill-rule="evenodd"></path><path fill="#000000" fill-opacity="0.0" d="m160.92697 355.42783l635.4016 0" fill-rule="evenodd"></path><path stroke="#000000" stroke-width="1.0" stroke-linejoin="round" stroke-linecap="butt" d="m160.92697 355.42783l635.4016 0" fill-rule="evenodd"></path><path fill="#000000" fill-opacity="0.0" d="m160.92697 377.42783l635.4016 0" fill-rule="evenodd"></path><path stroke="#000000" stroke-width="1.0" stroke-linejoin="round" stroke-linecap="butt" d="m160.92697 377.42783l635.4016 0" fill-rule="evenodd"></path><path fill="#000000" fill-opacity="0.0" d="m160.92697 402.42783l635.4016 0" fill-rule="evenodd"></path><path stroke="#000000" stroke-width="1.0" stroke-linejoin="round" stroke-linecap="butt" d="m160.92697 402.42783l635.4016 0" fill-rule="evenodd"></path><path fill="#000000" fill-opacity="0.0" d="m160.92697 426.42783l635.4016 0" fill-rule="evenodd"></path><path stroke="#000000" stroke-width="1.0" stroke-linejoin="round" stroke-linecap="butt" d="m160.92697 426.42783l635.4016 0" fill-rule="evenodd"></path><path fill="#000000" fill-opacity="0.0" d="m160.92697 450.42783l635.4016 0" fill-rule="evenodd"></path><path stroke="#000000" stroke-width="1.0" stroke-linejoin="round" stroke-linecap="butt" d="m160.92697 450.42783l635.4016 0" fill-rule="evenodd"></path><path fill="#000000" fill-opacity="0.0" d="m160.92697 474.42783l635.4016 0" fill-rule="evenodd"></path><path stroke="#000000" stroke-width="1.0" stroke-linejoin="round" stroke-linecap="butt" d="m160.92697 474.42783l635.4016 0" fill-rule="evenodd"></path><path fill="#000000" fill-opacity="0.0" d="m160.92697 498.42783l635.4016 0" fill-rule="evenodd"></path><path stroke="#000000" stroke-width="1.0" stroke-linejoin="round" stroke-linecap="butt" d="m160.92697 498.42783l635.4016 0" fill-rule="evenodd"></path><path fill="#000000" fill-opacity="0.0" d="m224.47643 325.97375l64.7874 0l0 34.677155l-64.7874 0z" fill-rule="evenodd"></path><path fill="#000000" d="m249.113 345.3675l-3.875 0l-0.859375 2.40625l-1.265625 0l3.53125 -9.25l1.078125 0l3.53125 9.25l-1.25 0l-0.890625 -2.40625zm-3.5 -1.015625l3.140625 0l-1.578125 -4.3125l-1.5625 4.3125zm8.194519 3.421875l-1.1875 0l0 -6.875l1.1875 0l0 6.875zm-1.28125 -8.6875q0 -0.28125 0.171875 -0.484375q0.1875 -0.203125 0.53125 -0.203125q0.34375 0 0.515625 0.203125q0.171875 0.203125 0.171875 0.484375q0 0.28125 -0.171875 0.46875q-0.171875 0.1875 -0.515625 0.1875q-0.34375 0 -0.53125 -0.1875q-0.171875 -0.1875 -0.171875 -0.46875zm6.546936 2.875q-0.265625 -0.046875 -0.578125 -0.046875q-1.15625 0 -1.5625 0.984375l0 4.875l-1.1718903 0l0 -6.875l1.1406403 0l0.015625 0.796875q0.578125 -0.921875 1.640625 -0.921875q0.34375 0 0.515625 0.09375l0 1.09375zm2.4786987 5.8125l-1.1875 0l0 -9.75l1.1875 0l0 9.75zm3.234436 0l-1.1875 0l0 -6.875l1.1875 0l0 6.875zm-1.28125 -8.6875q0 -0.28125 0.171875 -0.484375q0.1875 -0.203125 0.53125 -0.203125q0.34375 0 0.515625 0.203125q0.171875 0.203125 0.171875 0.484375q0 0.28125 -0.171875 0.46875q-0.171875 0.1875 -0.515625 0.1875q-0.34375 0 -0.53125 -0.1875q-0.171875 -0.1875 -0.171875 -0.46875zm4.3437805 1.8125l0.03125 0.875q0.796875 -1.0 2.0625 -1.0q2.171875 0 2.203125 2.46875l0 4.53125l-1.1875 0l0 -4.546875q0 -0.734375 -0.34375 -1.09375q-0.328125 -0.359375 -1.03125 -0.359375q-0.5625 0 -1.0 0.3125q-0.4375 0.296875 -0.671875 0.796875l0 4.890625l-1.171875 0l0 -6.875l1.109375 0zm9.088287 7.0q-1.390625 0 -2.265625 -0.90625q-0.875 -0.921875 -0.875 -2.46875l0 -0.203125q0 -1.03125 0.390625 -1.828125q0.390625 -0.8125 1.09375 -1.265625q0.703125 -0.453125 1.515625 -0.453125q1.34375 0 2.078125 0.890625q0.75 0.875 0.75 2.515625l0 0.5l-4.65625 0q0.03125 1.015625 0.59375 1.640625q0.5625 0.625 1.4375 0.625q0.625 0 1.046875 -0.25q0.4375 -0.265625 0.765625 -0.6875l0.71875 0.5625q-0.859375 1.328125 -2.59375 1.328125zm-0.140625 -6.15625q-0.71875 0 -1.203125 0.515625q-0.46875 0.515625 -0.59375 1.453125l3.453125 0l0 -0.09375q-0.0625 -0.890625 -0.5 -1.375q-0.421875 -0.5 -1.15625 -0.5z" fill-rule="nonzero"></path><path fill="#000000" fill-opacity="0.0" d="m278.07657 325.97375l64.787415 0l0 34.677155l-64.787415 0z" fill-rule="evenodd"></path><path fill="#000000" d="m298.46808 344.83624q-0.171875 1.46875 -1.09375 2.265625q-0.90625 0.796875 -2.40625 0.796875q-1.640625 0 -2.640625 -1.171875q-0.984375 -1.171875 -0.984375 -3.140625l0 -0.890625q0 -1.28125 0.453125 -2.265625q0.46875 -0.984375 1.3125 -1.5q0.84375 -0.53125 1.953125 -0.53125q1.484375 0 2.359375 0.828125q0.890625 0.828125 1.046875 2.28125l-1.234375 0q-0.15625 -1.109375 -0.6875 -1.59375q-0.53125 -0.5 -1.484375 -0.5q-1.15625 0 -1.828125 0.859375q-0.65625 0.859375 -0.65625 2.453125l0 0.890625q0 1.515625 0.625 2.40625q0.625 0.875 1.765625 0.875q1.015625 0 1.546875 -0.453125q0.546875 -0.46875 0.71875 -1.609375l1.234375 0zm1.3781433 -0.5625q0 -1.0 0.390625 -1.8125q0.40625 -0.8125 1.109375 -1.25q0.703125 -0.4375 1.609375 -0.4375q1.40625 0 2.265625 0.984375q0.875 0.96875 0.875 2.578125l0 0.078125q0 1.0 -0.390625 1.796875q-0.375 0.796875 -1.09375 1.25q-0.703125 0.4375 -1.640625 0.4375q-1.390625 0 -2.265625 -0.96875q-0.859375 -0.96875 -0.859375 -2.578125l0 -0.078125zm1.1875 0.140625q0 1.140625 0.515625 1.84375q0.53125 0.6875 1.421875 0.6875q0.90625 0 1.421875 -0.703125q0.53125 -0.703125 0.53125 -1.96875q0 -1.125 -0.546875 -1.828125q-0.53125 -0.703125 -1.421875 -0.703125q-0.859375 0 -1.390625 0.703125q-0.53125 0.6875 -0.53125 1.96875zm7.8355713 -3.515625l0.03125 0.875q0.796875 -1.0 2.0625 -1.0q2.171875 0 2.203125 2.46875l0 4.53125l-1.1875 0l0 -4.546875q0 -0.734375 -0.34375 -1.09375q-0.328125 -0.359375 -1.03125 -0.359375q-0.5625 0 -1.0 0.3125q-0.4375 0.296875 -0.671875 0.796875l0 4.890625l-1.171875 0l0 -6.875l1.109375 0zm6.822632 6.875l0 -5.953125l-1.09375 0l0 -0.921875l1.09375 0l0 -0.703125q0 -1.09375 0.578125 -1.703125q0.59375 -0.609375 1.671875 -0.609375q0.40625 0 0.8125 0.109375l-0.0625 0.953125q-0.296875 -0.046875 -0.640625 -0.046875q-0.5625 0 -0.875 0.328125q-0.3125 0.328125 -0.3125 0.953125l0 0.71875l1.46875 0l0 0.921875l-1.46875 0l0 5.953125l-1.171875 0zm4.0802307 -0.609375q0 -0.3125 0.171875 -0.515625q0.1875 -0.203125 0.546875 -0.203125q0.359375 0 0.546875 0.203125q0.1875 0.203125 0.1875 0.515625q0 0.28125 -0.1875 0.484375q-0.1875 0.1875 -0.546875 0.1875q-0.359375 0 -0.546875 -0.1875q-0.171875 -0.203125 -0.171875 -0.484375zm10.744751 -2.0l-1.671875 0l-0.515625 2.609375l-0.90625 0l0.5 -2.609375l-1.515625 0l0 -0.859375l1.6875 0l0.4375 -2.25l-1.640625 0l0 -0.890625l1.8125 0l0.515625 -2.640625l0.90625 0l-0.515625 2.640625l1.671875 0l0.53125 -2.640625l0.90625 0l-0.515625 2.640625l1.296875 0l0 0.890625l-1.46875 0l-0.4375 2.25l1.421875 0l0 0.859375l-1.59375 0l-0.5 2.609375l-0.921875 0l0.515625 -2.609375zm-1.515625 -0.859375l1.671875 0l0.4375 -2.25l-1.671875 0l-0.4375 2.25z" fill-rule="nonzero"></path><path fill="#000000" fill-opacity="0.0" d="m378.86063 325.97375l71.93698 0l0 34.677155l-71.93698 0z" fill-rule="evenodd"></path><path fill="#000000" d="m401.41132 339.53937l-2.96875 0l0 8.234375l-1.203125 0l0 -8.234375l-2.96875 0l0 -1.015625l7.140625 0l0 1.015625zm2.6713867 8.234375l-1.1875 0l0 -6.875l1.1875 0l0 6.875zm-1.28125 -8.6875q0 -0.28125 0.171875 -0.484375q0.1875 -0.203125 0.53125 -0.203125q0.34375 0 0.515625 0.203125q0.171875 0.203125 0.171875 0.484375q0 0.28125 -0.171875 0.46875q-0.171875 0.1875 -0.515625 0.1875q-0.34375 0 -0.53125 -0.1875q-0.171875 -0.1875 -0.171875 -0.46875zm5.9844055 7.859375q0.625 0 1.09375 -0.375q0.484375 -0.390625 0.53125 -0.96875l1.109375 0q-0.03125 0.59375 -0.40625 1.125q-0.375 0.53125 -1.0 0.859375q-0.625 0.3125 -1.328125 0.3125q-1.40625 0 -2.234375 -0.9375q-0.828125 -0.9375 -0.828125 -2.5625l0 -0.1875q0 -1.015625 0.375 -1.78125q0.375 -0.78125 1.0625 -1.21875q0.6875 -0.4375 1.625 -0.4375q1.15625 0 1.921875 0.703125q0.765625 0.6875 0.8125 1.796875l-1.109375 0q-0.046875 -0.671875 -0.515625 -1.09375q-0.453125 -0.4375 -1.109375 -0.4375q-0.890625 0 -1.390625 0.65625q-0.484375 0.640625 -0.484375 1.859375l0 0.21875q0 1.1875 0.484375 1.828125q0.484375 0.640625 1.390625 0.640625zm6.1483154 -2.359375l-0.75 0.78125l0 2.40625l-1.171875 0l0 -9.75l1.171875 0l0 5.890625l0.640625 -0.75l2.140625 -2.265625l1.421875 0l-2.671875 2.875l2.984375 4.0l-1.375 0l-2.390625 -3.1875zm7.677063 3.3125q-1.390625 0 -2.265625 -0.90625q-0.875 -0.921875 -0.875 -2.46875l0 -0.203125q0 -1.03125 0.390625 -1.828125q0.390625 -0.8125 1.09375 -1.265625q0.703125 -0.453125 1.515625 -0.453125q1.34375 0 2.078125 0.890625q0.75 0.875 0.75 2.515625l0 0.5l-4.65625 0q0.03125 1.015625 0.59375 1.640625q0.5625 0.625 1.4375 0.625q0.625 0 1.046875 -0.25q0.4375 -0.265625 0.765625 -0.6875l0.71875 0.5625q-0.859375 1.328125 -2.59375 1.328125zm-0.140625 -6.15625q-0.71875 0 -1.203125 0.515625q-0.46875 0.515625 -0.59375 1.453125l3.453125 0l0 -0.09375q-0.0625 -0.890625 -0.5 -1.375q-0.421875 -0.5 -1.15625 -0.5zm5.95166 -2.5l0 1.65625l1.28125 0l0 0.921875l-1.28125 0l0 4.25q0 0.421875 0.171875 0.625q0.171875 0.203125 0.578125 0.203125q0.203125 0 0.5625 -0.078125l0 0.953125q-0.46875 0.125 -0.90625 0.125q-0.78125 0 -1.1875 -0.46875q-0.390625 -0.484375 -0.390625 -1.359375l0 -4.25l-1.25 0l0 -0.921875l1.25 0l0 -1.65625l1.171875 0zm10.02829 5.921875l-1.671875 0l-0.515625 2.609375l-0.90625 0l0.5 -2.609375l-1.515625 0l0 -0.859375l1.6875 0l0.4375 -2.25l-1.640625 0l0 -0.890625l1.8125 0l0.515625 -2.640625l0.90625 0l-0.515625 2.640625l1.671875 0l0.53125 -2.640625l0.90625 0l-0.515625 2.640625l1.296875 0l0 0.890625l-1.46875 0l-0.4375 2.25l1.421875 0l0 0.859375l-1.59375 0l-0.5 2.609375l-0.921875 0l0.515625 -2.609375zm-1.515625 -0.859375l1.671875 0l0.4375 -2.25l-1.671875 0l-0.4375 2.25z" fill-rule="nonzero"></path><path fill="#000000" fill-opacity="0.0" d="m463.60284 325.97375l114.834656 0l0 34.677155l-114.834656 0z" fill-rule="evenodd"></path><path fill="#000000" d="m502.65146 347.77374l0 -9.25l2.609375 0q1.203125 0 2.125 0.546875q0.921875 0.53125 1.421875 1.515625q0.515625 0.984375 0.515625 2.25l0 0.59375q0 1.3125 -0.5 2.296875q-0.5 0.984375 -1.4375 1.515625q-0.9375 0.515625 -2.1875 0.53125l-2.546875 0zm1.21875 -8.234375l0 7.234375l1.28125 0q1.40625 0 2.1875 -0.875q0.78125 -0.875 0.78125 -2.5l0 -0.53125q0 -1.578125 -0.734375 -2.453125q-0.734375 -0.875 -2.09375 -0.875l-1.421875 0zm11.568207 8.234375q-0.09375 -0.203125 -0.15625 -0.71875q-0.828125 0.84375 -1.953125 0.84375q-1.015625 0 -1.671875 -0.5625q-0.65625 -0.578125 -0.65625 -1.46875q0 -1.078125 0.8125 -1.671875q0.828125 -0.59375 2.296875 -0.59375l1.140625 0l0 -0.53125q0 -0.609375 -0.375 -0.96875q-0.359375 -0.375 -1.078125 -0.375q-0.625 0 -1.046875 0.3125q-0.421875 0.3125 -0.421875 0.765625l-1.1875 0q0 -0.515625 0.359375 -0.984375q0.375 -0.484375 1.0 -0.765625q0.625 -0.28125 1.375 -0.28125q1.1875 0 1.859375 0.59375q0.671875 0.59375 0.703125 1.640625l0 3.15625q0 0.953125 0.234375 1.5l0 0.109375l-1.234375 0zm-1.9375 -0.890625q0.546875 0 1.03125 -0.28125q0.5 -0.296875 0.71875 -0.75l0 -1.40625l-0.90625 0q-2.171875 0 -2.171875 1.265625q0 0.546875 0.375 0.859375q0.375 0.3125 0.953125 0.3125zm6.546631 -7.640625l0 1.65625l1.28125 0l0 0.921875l-1.28125 0l0 4.25q0 0.421875 0.171875 0.625q0.171875 0.203125 0.578125 0.203125q0.203125 0 0.5625 -0.078125l0 0.953125q-0.46875 0.125 -0.90625 0.125q-0.78125 0 -1.1875 -0.46875q-0.390625 -0.484375 -0.390625 -1.359375l0 -4.25l-1.25 0l0 -0.921875l1.25 0l0 -1.65625l1.171875 0zm5.603821 8.65625q-1.390625 0 -2.265625 -0.90625q-0.875 -0.921875 -0.875 -2.46875l0 -0.203125q0 -1.03125 0.390625 -1.828125q0.390625 -0.8125 1.09375 -1.265625q0.703125 -0.453125 1.515625 -0.453125q1.34375 0 2.078125 0.890625q0.75 0.875 0.75 2.515625l0 0.5l-4.65625 0q0.03125 1.015625 0.59375 1.640625q0.5625 0.625 1.4375 0.625q0.625 0 1.046875 -0.25q0.4375 -0.265625 0.765625 -0.6875l0.71875 0.5625q-0.859375 1.328125 -2.59375 1.328125zm-0.140625 -6.15625q-0.71875 0 -1.203125 0.515625q-0.46875 0.515625 -0.59375 1.453125l3.453125 0l0 -0.09375q-0.0625 -0.890625 -0.5 -1.375q-0.421875 -0.5 -1.15625 -0.5zm13.454285 2.671875q0 1.5625 -0.71875 2.53125q-0.71875 0.953125 -1.9375 0.953125q-1.25 0 -1.96875 -0.796875l0 3.3125l-1.171875 0l0 -9.515625l1.078125 0l0.046875 0.765625q0.71875 -0.890625 2.0 -0.890625q1.234375 0 1.953125 0.9375q0.71875 0.9375 0.71875 2.59375l0 0.109375zm-1.171875 -0.125q0 -1.171875 -0.5 -1.84375q-0.484375 -0.671875 -1.359375 -0.671875q-1.0625 0 -1.59375 0.953125l0 3.28125q0.53125 0.9375 1.609375 0.9375q0.84375 0 1.34375 -0.671875q0.5 -0.671875 0.5 -1.984375zm7.086914 2.8125q-0.6875 0.796875 -2.015625 0.796875q-1.09375 0 -1.671875 -0.640625q-0.5625 -0.640625 -0.578125 -1.890625l0 -4.46875l1.171875 0l0 4.4375q0 1.5625 1.28125 1.5625q1.34375 0 1.78125 -1.0l0 -5.0l1.171875 0l0 6.875l-1.109375 0l-0.03125 -0.671875zm6.425537 -5.140625q-0.265625 -0.046875 -0.578125 -0.046875q-1.15625 0 -1.5625 0.984375l0 4.875l-1.171875 0l0 -6.875l1.140625 0l0.015625 0.796875q0.578125 -0.921875 1.640625 -0.921875q0.34375 0 0.515625 0.09375l0 1.09375zm3.9474487 4.984375q0.625 0 1.09375 -0.375q0.484375 -0.390625 0.53125 -0.96875l1.109375 0q-0.03125 0.59375 -0.40625 1.125q-0.375 0.53125 -1.0 0.859375q-0.625 0.3125 -1.328125 0.3125q-1.40625 0 -2.234375 -0.9375q-0.828125 -0.9375 -0.828125 -2.5625l0 -0.1875q0 -1.015625 0.375 -1.78125q0.375 -0.78125 1.0625 -1.21875q0.6875 -0.4375 1.625 -0.4375q1.15625 0 1.921875 0.703125q0.765625 0.6875 0.8125 1.796875l-1.109375 0q-0.046875 -0.671875 -0.515625 -1.09375q-0.453125 -0.4375 -1.109375 -0.4375q-0.890625 0 -1.390625 0.65625q-0.484375 0.640625 -0.484375 1.859375l0 0.21875q0 1.1875 0.484375 1.828125q0.484375 0.640625 1.390625 0.640625zm5.3983154 -5.203125q0.78125 -0.96875 2.03125 -0.96875q2.171875 0 2.203125 2.46875l0 4.53125l-1.1875 0l0 -4.546875q0 -0.734375 -0.34375 -1.09375q-0.328125 -0.359375 -1.03125 -0.359375q-0.5625 0 -1.0 0.3125q-0.4375 0.296875 -0.671875 0.796875l0 4.890625l-1.171875 0l0 -9.75l1.171875 0l0 3.71875zm6.2002563 5.421875q0 -0.3125 0.171875 -0.515625q0.1875 -0.203125 0.546875 -0.203125q0.359375 0 0.546875 0.203125q0.1875 0.203125 0.1875 0.515625q0 0.28125 -0.1875 0.484375q-0.1875 0.1875 -0.546875 0.1875q-0.359375 0 -0.546875 -0.1875q-0.171875 -0.203125 -0.171875 -0.484375z" fill-rule="nonzero"></path><path fill="#000000" fill-opacity="0.0" d="m530.334 325.97375l114.834595 0l0 34.677155l-114.834595 0z" fill-rule="evenodd"></path><path fill="#000000" d="m582.7823 347.77374l0 -9.25l2.609375 0q1.203125 0 2.125 0.546875q0.921875 0.53125 1.421875 1.515625q0.515625 0.984375 0.515625 2.25l0 0.59375q0 1.3125 -0.5 2.296875q-0.5 0.984375 -1.4375 1.515625q-0.9375 0.515625 -2.1875 0.53125l-2.546875 0zm1.21875 -8.234375l0 7.234375l1.28125 0q1.40625 0 2.1875 -0.875q0.78125 -0.875 0.78125 -2.5l0 -0.53125q0 -1.578125 -0.734375 -2.453125q-0.734375 -0.875 -2.09375 -0.875l-1.421875 0zm11.568176 8.234375q-0.09375 -0.203125 -0.15625 -0.71875q-0.828125 0.84375 -1.953125 0.84375q-1.015625 0 -1.671875 -0.5625q-0.65625 -0.578125 -0.65625 -1.46875q0 -1.078125 0.8125 -1.671875q0.828125 -0.59375 2.296875 -0.59375l1.140625 0l0 -0.53125q0 -0.609375 -0.375 -0.96875q-0.359375 -0.375 -1.078125 -0.375q-0.625 0 -1.046875 0.3125q-0.421875 0.3125 -0.421875 0.765625l-1.1875 0q0 -0.515625 0.359375 -0.984375q0.375 -0.484375 1.0 -0.765625q0.625 -0.28125 1.375 -0.28125q1.1875 0 1.859375 0.59375q0.671875 0.59375 0.703125 1.640625l0 3.15625q0 0.953125 0.234375 1.5l0 0.109375l-1.234375 0zm-1.9375 -0.890625q0.546875 0 1.03125 -0.28125q0.5 -0.296875 0.71875 -0.75l0 -1.40625l-0.90625 0q-2.171875 0 -2.171875 1.265625q0 0.546875 0.375 0.859375q0.375 0.3125 0.953125 0.3125zm6.546692 -7.640625l0 1.65625l1.28125 0l0 0.921875l-1.28125 0l0 4.25q0 0.421875 0.171875 0.625q0.171875 0.203125 0.578125 0.203125q0.203125 0 0.5625 -0.078125l0 0.953125q-0.46875 0.125 -0.90625 0.125q-0.78125 0 -1.1875 -0.46875q-0.390625 -0.484375 -0.390625 -1.359375l0 -4.25l-1.25 0l0 -0.921875l1.25 0l0 -1.65625l1.171875 0zm5.60376 8.65625q-1.390625 0 -2.265625 -0.90625q-0.875 -0.921875 -0.875 -2.46875l0 -0.203125q0 -1.03125 0.390625 -1.828125q0.390625 -0.8125 1.09375 -1.265625q0.703125 -0.453125 1.515625 -0.453125q1.34375 0 2.078125 0.890625q0.75 0.875 0.75 2.515625l0 0.5l-4.65625 0q0.03125 1.015625 0.59375 1.640625q0.5625 0.625 1.4375 0.625q0.625 0 1.046875 -0.25q0.4375 -0.265625 0.765625 -0.6875l0.71875 0.5625q-0.859375 1.328125 -2.59375 1.328125zm-0.140625 -6.15625q-0.71875 0 -1.203125 0.515625q-0.46875 0.515625 -0.59375 1.453125l3.453125 0l0 -0.09375q-0.0625 -0.890625 -0.5 -1.375q-0.421875 -0.5 -1.15625 -0.5zm10.40741 5.203125q0.625 0 1.09375 -0.375q0.484375 -0.390625 0.53125 -0.96875l1.109375 0q-0.03125 0.59375 -0.40625 1.125q-0.375 0.53125 -1.0 0.859375q-0.625 0.3125 -1.328125 0.3125q-1.40625 0 -2.234375 -0.9375q-0.828125 -0.9375 -0.828125 -2.5625l0 -0.1875q0 -1.015625 0.375 -1.78125q0.375 -0.78125 1.0625 -1.21875q0.6875 -0.4375 1.625 -0.4375q1.15625 0 1.921875 0.703125q0.765625 0.6875 0.8125 1.796875l-1.109375 0q-0.046875 -0.671875 -0.515625 -1.09375q-0.453125 -0.4375 -1.109375 -0.4375q-0.890625 0 -1.390625 0.65625q-0.484375 0.640625 -0.484375 1.859375l0 0.21875q0 1.1875 0.484375 1.828125q0.484375 0.640625 1.390625 0.640625zm6.5233154 -3.53125l1.53125 -2.515625l1.375 0l-2.25 3.40625l2.3125 3.46875l-1.359375 0l-1.578125 -2.578125l-1.59375 2.578125l-1.359375 0l2.3125 -3.46875l-2.25 -3.40625l1.359375 0l1.5 2.515625zm4.38678 -2.28125l-0.65625 -0.453125q0.578125 -0.828125 0.609375 -1.75l0 -0.90625l1.15625 0l0 0.828125q-0.015625 0.625 -0.328125 1.265625q-0.296875 0.625 -0.78125 1.015625zm2.3023071 3.15625q0 -1.59375 0.734375 -2.546875q0.75 -0.96875 1.96875 -0.96875q1.203125 0 1.90625 0.828125l0 -3.578125l1.1875 0l0 9.75l-1.09375 0l-0.046875 -0.734375q-0.703125 0.859375 -1.96875 0.859375q-1.1875 0 -1.9375 -0.96875q-0.75 -0.984375 -0.75 -2.5625l0 -0.078125zm1.171875 0.125q0 1.171875 0.484375 1.828125q0.484375 0.65625 1.328125 0.65625q1.109375 0 1.625 -1.0l0 -3.15625q-0.515625 -0.96875 -1.609375 -0.96875q-0.859375 0 -1.34375 0.671875q-0.484375 0.65625 -0.484375 1.96875z" fill-rule="nonzero"></path><path fill="#000000" fill-opacity="0.0" d="m629.40295 325.97375l83.84247 0l0 34.677155l-83.84247 0z" fill-rule="evenodd"></path><path fill="#000000" d="m655.8956 343.50812l-4.0 0l0 3.265625l4.640625 0l0 1.0l-5.859375 0l0 -9.25l5.796875 0l0 1.015625l-4.578125 0l0 2.96875l4.0 0l0 1.0zm4.4658203 -0.09375l1.53125 -2.515625l1.375 0l-2.25 3.40625l2.3125 3.46875l-1.359375 0l-1.578125 -2.578125l-1.59375 2.578125l-1.359375 0l2.3125 -3.46875l-2.25 -3.40625l1.359375 0l1.5 2.515625zm10.105469 1.0q0 1.5625 -0.71875 2.53125q-0.71875 0.953125 -1.9375 0.953125q-1.25 0 -1.96875 -0.796875l0 3.3125l-1.171875 0l0 -9.515625l1.078125 0l0.046875 0.765625q0.71875 -0.890625 2.0 -0.890625q1.234375 0 1.953125 0.9375q0.71875 0.9375 0.71875 2.59375l0 0.109375zm-1.171875 -0.125q0 -1.171875 -0.5 -1.84375q-0.484375 -0.671875 -1.359375 -0.671875q-1.0625 0 -1.59375 0.953125l0 3.28125q0.53125 0.9375 1.609375 0.9375q0.84375 0 1.34375 -0.671875q0.5 -0.671875 0.5 -1.984375zm2.88385 2.875q0 -0.3125 0.171875 -0.515625q0.1875 -0.203125 0.546875 -0.203125q0.359375 0 0.546875 0.203125q0.1875 0.203125 0.1875 0.515625q0 0.28125 -0.1875 0.484375q-0.1875 0.1875 -0.546875 0.1875q-0.359375 0 -0.546875 -0.1875q-0.171875 -0.203125 -0.171875 -0.484375zm6.494751 -2.875q0 -1.59375 0.734375 -2.546875q0.75 -0.96875 1.96875 -0.96875q1.203125 0 1.90625 0.828125l0 -3.578125l1.1875 0l0 9.75l-1.09375 0l-0.046875 -0.734375q-0.703125 0.859375 -1.96875 0.859375q-1.1875 0 -1.9375 -0.96875q-0.75 -0.984375 -0.75 -2.5625l0 -0.078125zm1.171875 0.125q0 1.171875 0.484375 1.828125q0.484375 0.65625 1.328125 0.65625q1.109375 0 1.625 -1.0l0 -3.15625q-0.515625 -0.96875 -1.609375 -0.96875q-0.859375 0 -1.34375 0.671875q-0.484375 0.65625 -0.484375 1.96875zm10.860352 3.359375q-0.09375 -0.203125 -0.15625 -0.71875q-0.828125 0.84375 -1.953125 0.84375q-1.015625 0 -1.671875 -0.5625q-0.65625 -0.578125 -0.65625 -1.46875q0 -1.078125 0.8125 -1.671875q0.828125 -0.59375 2.296875 -0.59375l1.140625 0l0 -0.53125q0 -0.609375 -0.375 -0.96875q-0.359375 -0.375 -1.078125 -0.375q-0.625 0 -1.046875 0.3125q-0.421875 0.3125 -0.421875 0.765625l-1.1875 0q0 -0.515625 0.359375 -0.984375q0.375 -0.484375 1.0 -0.765625q0.625 -0.28125 1.375 -0.28125q1.1875 0 1.859375 0.59375q0.671875 0.59375 0.703125 1.640625l0 3.15625q0 0.953125 0.234375 1.5l0 0.109375l-1.234375 0zm-1.9375 -0.890625q0.546875 0 1.03125 -0.28125q0.5 -0.296875 0.71875 -0.75l0 -1.40625l-0.90625 0q-2.171875 0 -2.171875 1.265625q0 0.546875 0.375 0.859375q0.375 0.3125 0.953125 0.3125zm6.546631 -7.640625l0 1.65625l1.28125 0l0 0.921875l-1.28125 0l0 4.25q0 0.421875 0.171875 0.625q0.171875 0.203125 0.578125 0.203125q0.203125 0 0.5625 -0.078125l0 0.953125q-0.46875 0.125 -0.90625 0.125q-0.78125 0 -1.1875 -0.46875q-0.390625 -0.484375 -0.390625 -1.359375l0 -4.25l-1.25 0l0 -0.921875l1.25 0l0 -1.65625l1.171875 0zm5.60376 8.65625q-1.390625 0 -2.265625 -0.90625q-0.875 -0.921875 -0.875 -2.46875l0 -0.203125q0 -1.03125 0.390625 -1.828125q0.390625 -0.8125 1.09375 -1.265625q0.703125 -0.453125 1.515625 -0.453125q1.34375 0 2.078125 0.890625q0.75 0.875 0.75 2.515625l0 0.5l-4.65625 0q0.03125 1.015625 0.59375 1.640625q0.5625 0.625 1.4375 0.625q0.625 0 1.046875 -0.25q0.4375 -0.265625 0.765625 -0.6875l0.71875 0.5625q-0.859375 1.328125 -2.59375 1.328125zm-0.140625 -6.15625q-0.71875 0 -1.203125 0.515625q-0.46875 0.515625 -0.59375 1.453125l3.453125 0l0 -0.09375q-0.0625 -0.890625 -0.5 -1.375q-0.421875 -0.5 -1.15625 -0.5z" fill-rule="nonzero"></path><path fill="#000000" fill-opacity="0.0" d="m690.734 325.9046l79.055115 0l0 34.677185l-79.055115 0z" fill-rule="evenodd"></path><path fill="#000000" d="m719.9286 345.29837l-3.875 0l-0.859375 2.40625l-1.265625 0l3.53125 -9.25l1.078125 0l3.53125 9.25l-1.25 0l-0.890625 -2.40625zm-3.5 -1.015625l3.140625 0l-1.578125 -4.3125l-1.5625 4.3125zm8.022644 -3.453125l0.03125 0.765625q0.75 -0.890625 2.03125 -0.890625q1.4375 0 1.96875 1.109375q0.328125 -0.5 0.875 -0.796875q0.5625 -0.3125 1.3125 -0.3125q2.25 0 2.296875 2.390625l0 4.609375l-1.171875 0l0 -4.53125q0 -0.734375 -0.34375 -1.09375q-0.328125 -0.375 -1.125 -0.375q-0.65625 0 -1.09375 0.390625q-0.421875 0.390625 -0.5 1.046875l0 4.5625l-1.171875 0l0 -4.5q0 -1.5 -1.46875 -1.5q-1.15625 0 -1.578125 0.984375l0 5.015625l-1.1875 0l0 -6.875l1.125 0zm10.259766 3.375q0 -1.0 0.390625 -1.8125q0.40625 -0.8125 1.109375 -1.25q0.703125 -0.4375 1.609375 -0.4375q1.40625 0 2.265625 0.984375q0.875 0.96875 0.875 2.578125l0 0.078125q0 1.0 -0.390625 1.796875q-0.375 0.796875 -1.09375 1.25q-0.703125 0.4375 -1.640625 0.4375q-1.390625 0 -2.265625 -0.96875q-0.859375 -0.96875 -0.859375 -2.578125l0 -0.078125zm1.1875 0.140625q0 1.140625 0.515625 1.84375q0.53125 0.6875 1.421875 0.6875q0.90625 0 1.421875 -0.703125q0.53125 -0.703125 0.53125 -1.96875q0 -1.125 -0.546875 -1.828125q-0.53125 -0.703125 -1.421875 -0.703125q-0.859375 0 -1.390625 0.703125q-0.53125 0.6875 -0.53125 1.96875zm10.960571 2.6875q-0.6875 0.796875 -2.015625 0.796875q-1.09375 0 -1.671875 -0.640625q-0.5625 -0.640625 -0.578125 -1.890625l0 -4.46875l1.171875 0l0 4.4375q0 1.5625 1.28125 1.5625q1.34375 0 1.78125 -1.0l0 -5.0l1.171875 0l0 6.875l-1.109375 0l-0.03125 -0.671875zm4.222351 -6.203125l0.03125 0.875q0.796875 -1.0 2.0625 -1.0q2.171875 0 2.203125 2.46875l0 4.53125l-1.1875 0l0 -4.546875q0 -0.734375 -0.34375 -1.09375q-0.328125 -0.359375 -1.03125 -0.359375q-0.5625 0 -1.0 0.3125q-0.4375 0.296875 -0.671875 0.796875l0 4.890625l-1.171875 0l0 -6.875l1.109375 0zm7.838318 -1.65625l0 1.65625l1.28125 0l0 0.921875l-1.28125 0l0 4.25q0 0.421875 0.171875 0.625q0.171875 0.203125 0.578125 0.203125q0.203125 0 0.5625 -0.078125l0 0.953125q-0.46875 0.125 -0.90625 0.125q-0.78125 0 -1.1875 -0.46875q-0.390625 -0.484375 -0.390625 -1.359375l0 -4.25l-1.25 0l0 -0.921875l1.25 0l0 -1.65625l1.171875 0z" fill-rule="nonzero"></path><path fill="#000000" fill-opacity="0.0" d="m108.55516 325.97375l124.69292 0l0 34.677155l-124.69292 0z" fill-rule="evenodd"></path><path fill="#000000" d="m183.66655 339.53937l-2.96875 0l0 8.234375l-1.203125 0l0 -8.234375l-2.96875 0l0 -1.015625l7.140625 0l0 1.015625zm4.7026215 2.421875q-0.265625 -0.046875 -0.578125 -0.046875q-1.15625 0 -1.5625 0.984375l0 4.875l-1.171875 0l0 -6.875l1.140625 0l0.015625 0.796875q0.578125 -0.921875 1.640625 -0.921875q0.34375 0 0.515625 0.09375l0 1.09375zm5.431839 5.8125q-0.09375 -0.203125 -0.15625 -0.71875q-0.828125 0.84375 -1.953125 0.84375q-1.015625 0 -1.671875 -0.5625q-0.65625 -0.578125 -0.65625 -1.46875q0 -1.078125 0.8125 -1.671875q0.828125 -0.59375 2.296875 -0.59375l1.140625 0l0 -0.53125q0 -0.609375 -0.375 -0.96875q-0.359375 -0.375 -1.078125 -0.375q-0.625 0 -1.046875 0.3125q-0.421875 0.3125 -0.421875 0.765625l-1.1875 0q0 -0.515625 0.359375 -0.984375q0.375 -0.484375 1.0 -0.765625q0.625 -0.28125 1.375 -0.28125q1.1875 0 1.859375 0.59375q0.671875 0.59375 0.703125 1.640625l0 3.15625q0 0.953125 0.234375 1.5l0 0.109375l-1.234375 0zm-1.9375 -0.890625q0.546875 0 1.03125 -0.28125q0.5 -0.296875 0.71875 -0.75l0 -1.40625l-0.90625 0q-2.171875 0 -2.171875 1.265625q0 0.546875 0.375 0.859375q0.375 0.3125 0.953125 0.3125zm7.218521 -0.703125l1.703125 -5.28125l1.203125 0l-2.46875 6.875l-0.890625 0l-2.5 -6.875l1.203125 0l1.75 5.28125zm7.0339355 1.71875q-1.390625 0 -2.265625 -0.90625q-0.875 -0.921875 -0.875 -2.46875l0 -0.203125q0 -1.03125 0.390625 -1.828125q0.390625 -0.8125 1.09375 -1.265625q0.703125 -0.453125 1.515625 -0.453125q1.34375 0 2.078125 0.890625q0.75 0.875 0.75 2.515625l0 0.5l-4.65625 0q0.03125 1.015625 0.59375 1.640625q0.5625 0.625 1.4375 0.625q0.625 0 1.046875 -0.25q0.4375 -0.265625 0.765625 -0.6875l0.71875 0.5625q-0.859375 1.328125 -2.59375 1.328125zm-0.140625 -6.15625q-0.71875 0 -1.203125 0.515625q-0.46875 0.515625 -0.59375 1.453125l3.453125 0l0 -0.09375q-0.0625 -0.890625 -0.5 -1.375q-0.421875 -0.5 -1.15625 -0.5zm5.6391754 6.03125l-1.1875 0l0 -9.75l1.1875 0l0 9.75zm4.796921 0.125q-1.390625 0 -2.265625 -0.90625q-0.875 -0.921875 -0.875 -2.46875l0 -0.203125q0 -1.03125 0.390625 -1.828125q0.390625 -0.8125 1.09375 -1.265625q0.703125 -0.453125 1.515625 -0.453125q1.34375 0 2.078125 0.890625q0.75 0.875 0.75 2.515625l0 0.5l-4.65625 0q0.03125 1.015625 0.59375 1.640625q0.5625 0.625 1.4375 0.625q0.625 0 1.046875 -0.25q0.4375 -0.265625 0.765625 -0.6875l0.71875 0.5625q-0.859375 1.328125 -2.59375 1.328125zm-0.140625 -6.15625q-0.71875 0 -1.203125 0.515625q-0.46875 0.515625 -0.59375 1.453125l3.453125 0l0 -0.09375q-0.0625 -0.890625 -0.5 -1.375q-0.421875 -0.5 -1.15625 -0.5zm7.6704254 0.21875q-0.265625 -0.046875 -0.578125 -0.046875q-1.15625 0 -1.5625 0.984375l0 4.875l-1.171875 0l0 -6.875l1.140625 0l0.015625 0.796875q0.578125 -0.921875 1.640625 -0.921875q0.34375 0 0.515625 0.09375l0 1.09375z" fill-rule="nonzero"></path><path fill="#000000" fill-opacity="0.0" d="m760.09375 348.47375l79.055115 0l0 34.677155l-79.055115 0z" fill-rule="evenodd"></path><path fill="#000000" d="m775.3906 366.00812l-4.0 0l0 3.265625l4.640625 0l0 1.0l-5.859375 0l0 -9.25l5.796875 0l0 1.015625l-4.578125 0l0 2.96875l4.0 0l0 1.0zm1.8876953 0.78125q0 -1.59375 0.734375 -2.546875q0.75 -0.96875 1.96875 -0.96875q1.203125 0 1.90625 0.828125l0 -3.578125l1.1875 0l0 9.75l-1.09375 0l-0.046875 -0.734375q-0.703125 0.859375 -1.96875 0.859375q-1.1875 0 -1.9375 -0.96875q-0.75 -0.984375 -0.75 -2.5625l0 -0.078125zm1.171875 0.125q0 1.171875 0.484375 1.828125q0.484375 0.65625 1.328125 0.65625q1.109375 0 1.625 -1.0l0 -3.15625q-0.515625 -0.96875 -1.609375 -0.96875q-0.859375 0 -1.34375 0.671875q-0.484375 0.65625 -0.484375 1.96875zm7.9072266 3.359375l-1.1875 0l0 -6.875l1.1875 0l0 6.875zm-1.28125 -8.6875q0 -0.28125 0.171875 -0.484375q0.1875 -0.203125 0.53125 -0.203125q0.34375 0 0.515625 0.203125q0.171875 0.203125 0.171875 0.484375q0 0.28125 -0.171875 0.46875q-0.171875 0.1875 -0.515625 0.1875q-0.34375 0 -0.53125 -0.1875q-0.171875 -0.1875 -0.171875 -0.46875zm4.828125 0.15625l0 1.65625l1.28125 0l0 0.921875l-1.28125 0l0 4.25q0 0.421875 0.171875 0.625q0.171875 0.203125 0.578125 0.203125q0.203125 0 0.5625 -0.078125l0 0.953125q-0.46875 0.125 -0.90625 0.125q-0.78125 0 -1.1875 -0.46875q-0.390625 -0.484375 -0.390625 -1.359375l0 -4.25l-1.25 0l0 -0.921875l1.25 0l0 -1.65625l1.171875 0z" fill-rule="nonzero"></path><path fill="#000000" fill-opacity="0.0" d="m236.8255 330.32022l0 193.48032" fill-rule="evenodd"></path><path stroke="#000000" stroke-width="1.0" stroke-linejoin="round" stroke-linecap="butt" d="m236.8255 330.32022l0 193.48032" fill-rule="evenodd"></path><path fill="#000000" fill-opacity="0.0" d="m284.8255 330.32022l0 193.48032" fill-rule="evenodd"></path><path stroke="#000000" stroke-width="1.0" stroke-linejoin="round" stroke-linecap="butt" d="m284.8255 330.32022l0 193.48032" fill-rule="evenodd"></path><path fill="#000000" fill-opacity="0.0" d="m340.8255 330.32022l0 193.48032" fill-rule="evenodd"></path><path stroke="#000000" stroke-width="1.0" stroke-linejoin="round" stroke-linecap="butt" d="m340.8255 330.32022l0 193.48032" fill-rule="evenodd"></path><path fill="#000000" fill-opacity="0.0" d="m764.8255 330.32022l0 193.48032" fill-rule="evenodd"></path><path stroke="#000000" stroke-width="1.0" stroke-linejoin="round" stroke-linecap="butt" d="m764.8255 330.32022l0 193.48032" fill-rule="evenodd"></path><path fill="#000000" fill-opacity="0.0" d="m708.8255 330.32022l0 193.48032" fill-rule="evenodd"></path><path stroke="#000000" stroke-width="1.0" stroke-linejoin="round" stroke-linecap="butt" d="m708.8255 330.32022l0 193.48032" fill-rule="evenodd"></path><path fill="#000000" fill-opacity="0.0" d="m642.78577 330.32022l0 193.48032" fill-rule="evenodd"></path><path stroke="#000000" stroke-width="1.0" stroke-linejoin="round" stroke-linecap="butt" d="m642.78577 330.32022l0 193.48032" fill-rule="evenodd"></path><path fill="#000000" fill-opacity="0.0" d="m572.8255 330.32022l0 193.48032" fill-rule="evenodd"></path><path stroke="#000000" stroke-width="1.0" stroke-linejoin="round" stroke-linecap="butt" d="m572.8255 330.32022l0 193.48032" fill-rule="evenodd"></path><path fill="#000000" fill-opacity="0.0" d="m494.75125 331.48465l0 193.48032" fill-rule="evenodd"></path><path stroke="#000000" stroke-width="1.0" stroke-linejoin="round" stroke-linecap="butt" d="m494.75125 331.48465l0 193.48032" fill-rule="evenodd"></path><path fill="#000000" fill-opacity="0.0" d="m760.09375 372.47375l79.055115 0l0 34.677155l-79.055115 0z" fill-rule="evenodd"></path><path fill="#000000" d="m775.3906 390.00812l-4.0 0l0 3.265625l4.640625 0l0 1.0l-5.859375 0l0 -9.25l5.796875 0l0 1.015625l-4.578125 0l0 2.96875l4.0 0l0 1.0zm1.8876953 0.78125q0 -1.59375 0.734375 -2.546875q0.75 -0.96875 1.96875 -0.96875q1.203125 0 1.90625 0.828125l0 -3.578125l1.1875 0l0 9.75l-1.09375 0l-0.046875 -0.734375q-0.703125 0.859375 -1.96875 0.859375q-1.1875 0 -1.9375 -0.96875q-0.75 -0.984375 -0.75 -2.5625l0 -0.078125zm1.171875 0.125q0 1.171875 0.484375 1.828125q0.484375 0.65625 1.328125 0.65625q1.109375 0 1.625 -1.0l0 -3.15625q-0.515625 -0.96875 -1.609375 -0.96875q-0.859375 0 -1.34375 0.671875q-0.484375 0.65625 -0.484375 1.96875zm7.9072266 3.359375l-1.1875 0l0 -6.875l1.1875 0l0 6.875zm-1.28125 -8.6875q0 -0.28125 0.171875 -0.484375q0.1875 -0.203125 0.53125 -0.203125q0.34375 0 0.515625 0.203125q0.171875 0.203125 0.171875 0.484375q0 0.28125 -0.171875 0.46875q-0.171875 0.1875 -0.515625 0.1875q-0.34375 0 -0.53125 -0.1875q-0.171875 -0.1875 -0.171875 -0.46875zm4.828125 0.15625l0 1.65625l1.28125 0l0 0.921875l-1.28125 0l0 4.25q0 0.421875 0.171875 0.625q0.171875 0.203125 0.578125 0.203125q0.203125 0 0.5625 -0.078125l0 0.953125q-0.46875 0.125 -0.90625 0.125q-0.78125 0 -1.1875 -0.46875q-0.390625 -0.484375 -0.390625 -1.359375l0 -4.25l-1.25 0l0 -0.921875l1.25 0l0 -1.65625l1.171875 0z" fill-rule="nonzero"></path><path fill="#000000" fill-opacity="0.0" d="m760.09375 396.47375l79.055115 0l0 34.677155l-79.055115 0z" fill-rule="evenodd"></path><path fill="#000000" d="m775.3906 414.00812l-4.0 0l0 3.265625l4.640625 0l0 1.0l-5.859375 0l0 -9.25l5.796875 0l0 1.015625l-4.578125 0l0 2.96875l4.0 0l0 1.0zm1.8876953 0.78125q0 -1.59375 0.734375 -2.546875q0.75 -0.96875 1.96875 -0.96875q1.203125 0 1.90625 0.828125l0 -3.578125l1.1875 0l0 9.75l-1.09375 0l-0.046875 -0.734375q-0.703125 0.859375 -1.96875 0.859375q-1.1875 0 -1.9375 -0.96875q-0.75 -0.984375 -0.75 -2.5625l0 -0.078125zm1.171875 0.125q0 1.171875 0.484375 1.828125q0.484375 0.65625 1.328125 0.65625q1.109375 0 1.625 -1.0l0 -3.15625q-0.515625 -0.96875 -1.609375 -0.96875q-0.859375 0 -1.34375 0.671875q-0.484375 0.65625 -0.484375 1.96875zm7.9072266 3.359375l-1.1875 0l0 -6.875l1.1875 0l0 6.875zm-1.28125 -8.6875q0 -0.28125 0.171875 -0.484375q0.1875 -0.203125 0.53125 -0.203125q0.34375 0 0.515625 0.203125q0.171875 0.203125 0.171875 0.484375q0 0.28125 -0.171875 0.46875q-0.171875 0.1875 -0.515625 0.1875q-0.34375 0 -0.53125 -0.1875q-0.171875 -0.1875 -0.171875 -0.46875zm4.828125 0.15625l0 1.65625l1.28125 0l0 0.921875l-1.28125 0l0 4.25q0 0.421875 0.171875 0.625q0.171875 0.203125 0.578125 0.203125q0.203125 0 0.5625 -0.078125l0 0.953125q-0.46875 0.125 -0.90625 0.125q-0.78125 0 -1.1875 -0.46875q-0.390625 -0.484375 -0.390625 -1.359375l0 -4.25l-1.25 0l0 -0.921875l1.25 0l0 -1.65625l1.171875 0z" fill-rule="nonzero"></path><path fill="#000000" fill-opacity="0.0" d="m760.09375 420.47375l79.055115 0l0 34.677155l-79.055115 0z" fill-rule="evenodd"></path><path fill="#000000" d="m775.3906 438.00812l-4.0 0l0 3.265625l4.640625 0l0 1.0l-5.859375 0l0 -9.25l5.796875 0l0 1.015625l-4.578125 0l0 2.96875l4.0 0l0 1.0zm1.8876953 0.78125q0 -1.59375 0.734375 -2.546875q0.75 -0.96875 1.96875 -0.96875q1.203125 0 1.90625 0.828125l0 -3.578125l1.1875 0l0 9.75l-1.09375 0l-0.046875 -0.734375q-0.703125 0.859375 -1.96875 0.859375q-1.1875 0 -1.9375 -0.96875q-0.75 -0.984375 -0.75 -2.5625l0 -0.078125zm1.171875 0.125q0 1.171875 0.484375 1.828125q0.484375 0.65625 1.328125 0.65625q1.109375 0 1.625 -1.0l0 -3.15625q-0.515625 -0.96875 -1.609375 -0.96875q-0.859375 0 -1.34375 0.671875q-0.484375 0.65625 -0.484375 1.96875zm7.9072266 3.359375l-1.1875 0l0 -6.875l1.1875 0l0 6.875zm-1.28125 -8.6875q0 -0.28125 0.171875 -0.484375q0.1875 -0.203125 0.53125 -0.203125q0.34375 0 0.515625 0.203125q0.171875 0.203125 0.171875 0.484375q0 0.28125 -0.171875 0.46875q-0.171875 0.1875 -0.515625 0.1875q-0.34375 0 -0.53125 -0.1875q-0.171875 -0.1875 -0.171875 -0.46875zm4.828125 0.15625l0 1.65625l1.28125 0l0 0.921875l-1.28125 0l0 4.25q0 0.421875 0.171875 0.625q0.171875 0.203125 0.578125 0.203125q0.203125 0 0.5625 -0.078125l0 0.953125q-0.46875 0.125 -0.90625 0.125q-0.78125 0 -1.1875 -0.46875q-0.390625 -0.484375 -0.390625 -1.359375l0 -4.25l-1.25 0l0 -0.921875l1.25 0l0 -1.65625l1.171875 0z" fill-rule="nonzero"></path><path fill="#000000" fill-opacity="0.0" d="m760.09375 444.47375l79.055115 0l0 34.677155l-79.055115 0z" fill-rule="evenodd"></path><path fill="#000000" d="m775.3906 462.00812l-4.0 0l0 3.265625l4.640625 0l0 1.0l-5.859375 0l0 -9.25l5.796875 0l0 1.015625l-4.578125 0l0 2.96875l4.0 0l0 1.0zm1.8876953 0.78125q0 -1.59375 0.734375 -2.546875q0.75 -0.96875 1.96875 -0.96875q1.203125 0 1.90625 0.828125l0 -3.578125l1.1875 0l0 9.75l-1.09375 0l-0.046875 -0.734375q-0.703125 0.859375 -1.96875 0.859375q-1.1875 0 -1.9375 -0.96875q-0.75 -0.984375 -0.75 -2.5625l0 -0.078125zm1.171875 0.125q0 1.171875 0.484375 1.828125q0.484375 0.65625 1.328125 0.65625q1.109375 0 1.625 -1.0l0 -3.15625q-0.515625 -0.96875 -1.609375 -0.96875q-0.859375 0 -1.34375 0.671875q-0.484375 0.65625 -0.484375 1.96875zm7.9072266 3.359375l-1.1875 0l0 -6.875l1.1875 0l0 6.875zm-1.28125 -8.6875q0 -0.28125 0.171875 -0.484375q0.1875 -0.203125 0.53125 -0.203125q0.34375 0 0.515625 0.203125q0.171875 0.203125 0.171875 0.484375q0 0.28125 -0.171875 0.46875q-0.171875 0.1875 -0.515625 0.1875q-0.34375 0 -0.53125 -0.1875q-0.171875 -0.1875 -0.171875 -0.46875zm4.828125 0.15625l0 1.65625l1.28125 0l0 0.921875l-1.28125 0l0 4.25q0 0.421875 0.171875 0.625q0.171875 0.203125 0.578125 0.203125q0.203125 0 0.5625 -0.078125l0 0.953125q-0.46875 0.125 -0.90625 0.125q-0.78125 0 -1.1875 -0.46875q-0.390625 -0.484375 -0.390625 -1.359375l0 -4.25l-1.25 0l0 -0.921875l1.25 0l0 -1.65625l1.171875 0z" fill-rule="nonzero"></path><path fill="#000000" fill-opacity="0.0" d="m760.09375 468.47375l79.055115 0l0 34.677155l-79.055115 0z" fill-rule="evenodd"></path><path fill="#000000" d="m775.3906 486.00812l-4.0 0l0 3.265625l4.640625 0l0 1.0l-5.859375 0l0 -9.25l5.796875 0l0 1.015625l-4.578125 0l0 2.96875l4.0 0l0 1.0zm1.8876953 0.78125q0 -1.59375 0.734375 -2.546875q0.75 -0.96875 1.96875 -0.96875q1.203125 0 1.90625 0.828125l0 -3.578125l1.1875 0l0 9.75l-1.09375 0l-0.046875 -0.734375q-0.703125 0.859375 -1.96875 0.859375q-1.1875 0 -1.9375 -0.96875q-0.75 -0.984375 -0.75 -2.5625l0 -0.078125zm1.171875 0.125q0 1.171875 0.484375 1.828125q0.484375 0.65625 1.328125 0.65625q1.109375 0 1.625 -1.0l0 -3.15625q-0.515625 -0.96875 -1.609375 -0.96875q-0.859375 0 -1.34375 0.671875q-0.484375 0.65625 -0.484375 1.96875zm7.9072266 3.359375l-1.1875 0l0 -6.875l1.1875 0l0 6.875zm-1.28125 -8.6875q0 -0.28125 0.171875 -0.484375q0.1875 -0.203125 0.53125 -0.203125q0.34375 0 0.515625 0.203125q0.171875 0.203125 0.171875 0.484375q0 0.28125 -0.171875 0.46875q-0.171875 0.1875 -0.515625 0.1875q-0.34375 0 -0.53125 -0.1875q-0.171875 -0.1875 -0.171875 -0.46875zm4.828125 0.15625l0 1.65625l1.28125 0l0 0.921875l-1.28125 0l0 4.25q0 0.421875 0.171875 0.625q0.171875 0.203125 0.578125 0.203125q0.203125 0 0.5625 -0.078125l0 0.953125q-0.46875 0.125 -0.90625 0.125q-0.78125 0 -1.1875 -0.46875q-0.390625 -0.484375 -0.390625 -1.359375l0 -4.25l-1.25 0l0 -0.921875l1.25 0l0 -1.65625l1.171875 0z" fill-rule="nonzero"></path><path fill="#000000" fill-opacity="0.0" d="m760.09375 492.47375l79.055115 0l0 34.677185l-79.055115 0z" fill-rule="evenodd"></path><path fill="#000000" d="m775.3906 510.00812l-4.0 0l0 3.265625l4.640625 0l0 1.0l-5.859375 0l0 -9.25l5.796875 0l0 1.015625l-4.578125 0l0 2.96875l4.0 0l0 1.0zm1.8876953 0.78125q0 -1.59375 0.734375 -2.546875q0.75 -0.96875 1.96875 -0.96875q1.203125 0 1.90625 0.828125l0 -3.578125l1.1875 0l0 9.75l-1.09375 0l-0.046875 -0.734375q-0.703125 0.859375 -1.96875 0.859375q-1.1875 0 -1.9375 -0.96875q-0.75 -0.984375 -0.75 -2.5625l0 -0.078125zm1.171875 0.125q0 1.171875 0.484375 1.828125q0.484375 0.65625 1.328125 0.65625q1.109375 0 1.625 -1.0l0 -3.15625q-0.515625 -0.96875 -1.609375 -0.96875q-0.859375 0 -1.34375 0.671875q-0.484375 0.65625 -0.484375 1.96875zm7.9072266 3.359375l-1.1875 0l0 -6.875l1.1875 0l0 6.875zm-1.28125 -8.6875q0 -0.28125 0.171875 -0.484375q0.1875 -0.203125 0.53125 -0.203125q0.34375 0 0.515625 0.203125q0.171875 0.203125 0.171875 0.484375q0 0.28125 -0.171875 0.46875q-0.171875 0.1875 -0.515625 0.1875q-0.34375 0 -0.53125 -0.1875q-0.171875 -0.1875 -0.171875 -0.46875zm4.828125 0.15625l0 1.65625l1.28125 0l0 0.921875l-1.28125 0l0 4.25q0 0.421875 0.171875 0.625q0.171875 0.203125 0.578125 0.203125q0.203125 0 0.5625 -0.078125l0 0.953125q-0.46875 0.125 -0.90625 0.125q-0.78125 0 -1.1875 -0.46875q-0.390625 -0.484375 -0.390625 -1.359375l0 -4.25l-1.25 0l0 -0.921875l1.25 0l0 -1.65625l1.171875 0z" fill-rule="nonzero"></path></g></svg>

